<mxfile host="app.diagrams.net" modified="2024-03-06T01:04:04.066Z" agent="Mozilla/5.0 (Windows NT 10.0; Win64; x64) AppleWebKit/537.36 (KHTML, like Gecko) Chrome/122.0.0.0 Safari/537.36" etag="Rr1zB5C6tejYbwNcEsHP" version="24.0.2" type="github">
  <diagram name="Page-1" id="2a216829-ef6e-dabb-86c1-c78162f3ba2b">
    <mxGraphModel dx="1199" dy="2446" grid="1" gridSize="10" guides="1" tooltips="1" connect="1" arrows="1" fold="1" page="1" pageScale="1" pageWidth="1600" pageHeight="900" background="#CCE5FF" math="0" shadow="1">
      <root>
        <mxCell id="0" />
        <mxCell id="1" parent="0" />
        <mxCell id="tVwt7a-vGTSm7AO9HARm-69" value="" style="group" parent="1" vertex="1" connectable="0">
          <mxGeometry x="394" y="-1749" width="157" height="228" as="geometry" />
        </mxCell>
        <mxCell id="tVwt7a-vGTSm7AO9HARm-26" value="Pessoas" style="html=1;overflow=block;blockSpacing=1;whiteSpace=wrap;fontSize=16.7;fontColor=#1d262b;spacing=9;strokeColor=#4881b3;strokeOpacity=100;rounded=1;absoluteArcSize=1;arcSize=9;fillColor=#F5FBFF;strokeWidth=NaN;lucidId=H8HgreQWKTkZ;" parent="tVwt7a-vGTSm7AO9HARm-69" vertex="1">
          <mxGeometry y="138" width="120" height="90" as="geometry" />
        </mxCell>
        <mxCell id="tVwt7a-vGTSm7AO9HARm-27" value="CPF" style="html=1;overflow=block;blockSpacing=1;whiteSpace=wrap;fontSize=13;fontColor=#1d262b;fontStyle=1;spacing=0;strokeColor=none;strokeOpacity=100;rounded=1;absoluteArcSize=1;arcSize=9;fillColor=none;strokeWidth=2.3;lucidId=yaIg8stN52DI;" parent="tVwt7a-vGTSm7AO9HARm-69" vertex="1">
          <mxGeometry x="9" width="28" height="23" as="geometry" />
        </mxCell>
        <mxCell id="tVwt7a-vGTSm7AO9HARm-28" value="DataDeNascimento" style="html=1;overflow=block;blockSpacing=1;whiteSpace=wrap;fontSize=13;fontColor=#1d262b;fontStyle=1;spacing=0;strokeColor=none;strokeOpacity=100;rounded=1;absoluteArcSize=1;arcSize=9;fillColor=none;strokeWidth=2.3;lucidId=7aIg7ORg_b_8;" parent="tVwt7a-vGTSm7AO9HARm-69" vertex="1">
          <mxGeometry x="33" y="31.5" width="120" height="18" as="geometry" />
        </mxCell>
        <mxCell id="tVwt7a-vGTSm7AO9HARm-29" value="Nome" style="html=1;overflow=block;blockSpacing=1;whiteSpace=wrap;fontSize=13;fontColor=#1d262b;fontStyle=1;spacing=0;strokeColor=none;strokeOpacity=100;rounded=1;absoluteArcSize=1;arcSize=9;fillColor=none;strokeWidth=2.3;lucidId=QaIgmuqJ065W;" parent="tVwt7a-vGTSm7AO9HARm-69" vertex="1">
          <mxGeometry x="49.5" y="62" width="43" height="21" as="geometry" />
        </mxCell>
        <mxCell id="tVwt7a-vGTSm7AO9HARm-30" value="" style="html=1;jettySize=18;whiteSpace=wrap;fontSize=13;strokeColor=#224C72;strokeWidth=1.5;rounded=1;arcSize=12;edgeStyle=orthogonalEdgeStyle;startArrow=oval;startFill=1;startSize=16;endArrow=none;lucidId=igIgx.lx9UIE;" parent="tVwt7a-vGTSm7AO9HARm-69" edge="1">
          <mxGeometry width="100" height="100" relative="1" as="geometry">
            <Array as="points">
              <mxPoint y="28" />
            </Array>
            <mxPoint y="10" as="sourcePoint" />
            <mxPoint y="140" as="targetPoint" />
          </mxGeometry>
        </mxCell>
        <mxCell id="tVwt7a-vGTSm7AO9HARm-31" value="" style="html=1;jettySize=18;whiteSpace=wrap;fontSize=13;strokeColor=#224C72;strokeWidth=1.5;rounded=1;arcSize=12;edgeStyle=orthogonalEdgeStyle;startArrow=none;endArrow=oval;endFill=0;endSize=16;lucidId=eiIgVI.FczFc;exitX=0.347;exitY=0.006;exitDx=0;exitDy=0;exitPerimeter=0;" parent="tVwt7a-vGTSm7AO9HARm-69" source="tVwt7a-vGTSm7AO9HARm-26" edge="1">
          <mxGeometry width="100" height="100" relative="1" as="geometry">
            <Array as="points" />
            <mxPoint x="41" y="71" as="targetPoint" />
            <mxPoint x="40" y="130" as="sourcePoint" />
          </mxGeometry>
        </mxCell>
        <mxCell id="tVwt7a-vGTSm7AO9HARm-32" value="PIS" style="html=1;overflow=block;blockSpacing=1;whiteSpace=wrap;fontSize=13;fontColor=#1d262b;fontStyle=1;spacing=0;strokeColor=none;strokeOpacity=100;rounded=1;absoluteArcSize=1;arcSize=9;fillColor=none;strokeWidth=2.3;lucidId=tiIgLMa89rRQ;" parent="tVwt7a-vGTSm7AO9HARm-69" vertex="1">
          <mxGeometry x="64.5" y="90" width="32" height="10" as="geometry" />
        </mxCell>
        <mxCell id="tVwt7a-vGTSm7AO9HARm-33" value="" style="html=1;jettySize=18;whiteSpace=wrap;fontSize=13;strokeColor=#224C72;strokeWidth=1.5;rounded=1;arcSize=12;edgeStyle=orthogonalEdgeStyle;startArrow=oval;startFill=0;startSize=16;endArrow=none;lucidId=6iIgoRQ1Rgz5;entryX=0.5;entryY=0;entryDx=0;entryDy=0;" parent="tVwt7a-vGTSm7AO9HARm-69" target="tVwt7a-vGTSm7AO9HARm-26" edge="1">
          <mxGeometry width="100" height="100" relative="1" as="geometry">
            <Array as="points" />
            <mxPoint x="59.64" y="97" as="sourcePoint" />
            <mxPoint x="60" y="130" as="targetPoint" />
          </mxGeometry>
        </mxCell>
        <mxCell id="tVwt7a-vGTSm7AO9HARm-34" value="" style="html=1;jettySize=18;whiteSpace=wrap;fontSize=13;strokeColor=#224C72;strokeWidth=1.5;rounded=1;arcSize=12;edgeStyle=orthogonalEdgeStyle;startArrow=oval;startFill=0;startSize=16;endArrow=none;entryX=0.189;entryY=-0.012;entryPerimeter=0;lucidId=njIg4lQoDOTW;" parent="tVwt7a-vGTSm7AO9HARm-69" target="tVwt7a-vGTSm7AO9HARm-26" edge="1">
          <mxGeometry width="100" height="100" relative="1" as="geometry">
            <Array as="points" />
            <mxPoint x="23" y="40" as="sourcePoint" />
          </mxGeometry>
        </mxCell>
        <mxCell id="INvLSEzhm12kDnQWH1qi-98" value="" style="html=1;jettySize=18;whiteSpace=wrap;fontSize=13;strokeColor=#224C72;strokeWidth=1.5;rounded=1;arcSize=12;edgeStyle=orthogonalEdgeStyle;startArrow=none;endArrow=oval;endFill=0;endSize=16;lucidId=sLIgwHOLy.2u;" edge="1" parent="tVwt7a-vGTSm7AO9HARm-69">
          <mxGeometry width="100" height="100" relative="1" as="geometry">
            <Array as="points">
              <mxPoint x="76" y="138" />
            </Array>
            <mxPoint x="76" y="138" as="sourcePoint" />
            <mxPoint x="76" y="116" as="targetPoint" />
          </mxGeometry>
        </mxCell>
        <mxCell id="INvLSEzhm12kDnQWH1qi-99" value="NomeSocial" style="html=1;overflow=block;blockSpacing=1;whiteSpace=wrap;fontSize=13;fontColor=#1d262b;spacing=0;strokeColor=none;strokeOpacity=100;rounded=1;absoluteArcSize=1;arcSize=9;fillColor=none;strokeWidth=1.5;lucidId=VMIgeRNOxklo;" vertex="1" parent="tVwt7a-vGTSm7AO9HARm-69">
          <mxGeometry x="88" y="108.5" width="40" height="17" as="geometry" />
        </mxCell>
        <mxCell id="tVwt7a-vGTSm7AO9HARm-72" value="" style="group" parent="1" vertex="1" connectable="0">
          <mxGeometry x="625" y="-1759" width="151" height="241" as="geometry" />
        </mxCell>
        <mxCell id="tVwt7a-vGTSm7AO9HARm-15" value="Clientes" style="html=1;overflow=block;blockSpacing=1;whiteSpace=wrap;fontSize=13;spacing=9;strokeColor=#4881b3;strokeOpacity=100;rounded=1;absoluteArcSize=1;arcSize=9;fillColor=#F5FBFF;strokeWidth=NaN;lucidId=8lIgg7D-oI.D;" parent="tVwt7a-vGTSm7AO9HARm-72" vertex="1">
          <mxGeometry y="151" width="120" height="90" as="geometry" />
        </mxCell>
        <mxCell id="tVwt7a-vGTSm7AO9HARm-16" value="" style="html=1;jettySize=18;whiteSpace=wrap;fontSize=13;strokeColor=#224C72;strokeWidth=1.5;rounded=1;arcSize=12;edgeStyle=orthogonalEdgeStyle;startArrow=none;endArrow=oval;endFill=1;endSize=16;exitX=0.03;exitY=-0.012;exitPerimeter=0;lucidId=woIg_ZJZc2i9;" parent="tVwt7a-vGTSm7AO9HARm-72" source="tVwt7a-vGTSm7AO9HARm-15" edge="1">
          <mxGeometry width="100" height="100" relative="1" as="geometry">
            <Array as="points" />
            <mxPoint x="4" as="targetPoint" />
          </mxGeometry>
        </mxCell>
        <mxCell id="tVwt7a-vGTSm7AO9HARm-17" value="Codigo" style="text;resizable=0;labelBackgroundColor=none;align=center;verticalAlign=middle;fontColor=default;fontSize=13;" parent="tVwt7a-vGTSm7AO9HARm-16" vertex="1">
          <mxGeometry x="0.8112219651645911" relative="1" as="geometry">
            <mxPoint x="31" y="-14" as="offset" />
          </mxGeometry>
        </mxCell>
        <mxCell id="tVwt7a-vGTSm7AO9HARm-70" style="edgeStyle=orthogonalEdgeStyle;rounded=0;orthogonalLoop=1;jettySize=auto;html=1;exitX=0;exitY=0;exitDx=0;exitDy=0;" parent="tVwt7a-vGTSm7AO9HARm-16" source="tVwt7a-vGTSm7AO9HARm-17" target="tVwt7a-vGTSm7AO9HARm-17" edge="1">
          <mxGeometry relative="1" as="geometry" />
        </mxCell>
        <mxCell id="tVwt7a-vGTSm7AO9HARm-18" value="" style="html=1;jettySize=18;whiteSpace=wrap;fontSize=13;strokeColor=#224C72;strokeWidth=1.5;rounded=1;arcSize=12;edgeStyle=orthogonalEdgeStyle;startArrow=none;endArrow=oval;endFill=0;endSize=16;exitX=0.19;exitY=-0.012;exitPerimeter=0;lucidId=2qIgoYb3jyKc;" parent="tVwt7a-vGTSm7AO9HARm-72" source="tVwt7a-vGTSm7AO9HARm-15" edge="1">
          <mxGeometry width="100" height="100" relative="1" as="geometry">
            <Array as="points" />
            <mxPoint x="22" y="30" as="targetPoint" />
          </mxGeometry>
        </mxCell>
        <mxCell id="tVwt7a-vGTSm7AO9HARm-19" value="Nome" style="html=1;overflow=block;blockSpacing=1;whiteSpace=wrap;fontSize=13;fontColor=#1d262b;spacing=0;strokeColor=none;strokeOpacity=100;rounded=1;absoluteArcSize=1;arcSize=0;fillColor=none;strokeWidth=2.3;lucidId=4qIgVq8Mnr.o;" parent="tVwt7a-vGTSm7AO9HARm-72" vertex="1">
          <mxGeometry x="64" y="79" width="45.5" height="16" as="geometry" />
        </mxCell>
        <mxCell id="tVwt7a-vGTSm7AO9HARm-20" value="" style="html=1;jettySize=18;whiteSpace=wrap;fontSize=13;strokeColor=#224C72;strokeWidth=1.5;rounded=1;arcSize=12;edgeStyle=orthogonalEdgeStyle;startArrow=none;endArrow=oval;endFill=0;endSize=16;exitX=0.349;exitY=-0.012;exitPerimeter=0;lucidId=WuIg_4~EO2tC;" parent="tVwt7a-vGTSm7AO9HARm-72" source="tVwt7a-vGTSm7AO9HARm-15" edge="1">
          <mxGeometry width="100" height="100" relative="1" as="geometry">
            <Array as="points" />
            <mxPoint x="41" y="60" as="targetPoint" />
          </mxGeometry>
        </mxCell>
        <mxCell id="tVwt7a-vGTSm7AO9HARm-21" value="TipoDeInscricao" style="html=1;overflow=block;blockSpacing=1;whiteSpace=wrap;fontSize=13;fontColor=#1d262b;spacing=0;strokeColor=none;strokeOpacity=100;rounded=1;absoluteArcSize=1;arcSize=9;fillColor=none;strokeWidth=2.3;lucidId=YuIg_ae2byMN;" parent="tVwt7a-vGTSm7AO9HARm-72" vertex="1">
          <mxGeometry x="51" y="50" width="98" height="19" as="geometry" />
        </mxCell>
        <mxCell id="tVwt7a-vGTSm7AO9HARm-22" value="" style="html=1;jettySize=18;whiteSpace=wrap;fontSize=13;strokeColor=#224C72;strokeWidth=1.5;rounded=1;arcSize=12;edgeStyle=orthogonalEdgeStyle;startArrow=none;endArrow=oval;endFill=0;endSize=16;lucidId=uvIgGhZvfLQY;" parent="tVwt7a-vGTSm7AO9HARm-72" edge="1">
          <mxGeometry width="100" height="100" relative="1" as="geometry">
            <Array as="points" />
            <mxPoint x="59" y="150" as="sourcePoint" />
            <mxPoint x="59" y="86" as="targetPoint" />
          </mxGeometry>
        </mxCell>
        <mxCell id="tVwt7a-vGTSm7AO9HARm-23" value="NumeroDeInscricao" style="html=1;overflow=block;blockSpacing=1;whiteSpace=wrap;fontSize=13;fontColor=#1d262b;spacing=0;strokeColor=none;strokeOpacity=100;rounded=1;absoluteArcSize=1;arcSize=9;fillColor=none;strokeWidth=2.3;lucidId=CvIgTIJx1_Bk;" parent="tVwt7a-vGTSm7AO9HARm-72" vertex="1">
          <mxGeometry x="30" y="22" width="120" height="20" as="geometry" />
        </mxCell>
        <mxCell id="tVwt7a-vGTSm7AO9HARm-24" value="" style="html=1;jettySize=18;whiteSpace=wrap;fontSize=13;strokeColor=#224C72;strokeWidth=1.5;rounded=1;arcSize=12;edgeStyle=orthogonalEdgeStyle;startArrow=none;endArrow=oval;endFill=0;endSize=16;exitX=0.658;exitY=-0.012;exitPerimeter=0;lucidId=VwIg00pTwX.J;" parent="tVwt7a-vGTSm7AO9HARm-72" source="tVwt7a-vGTSm7AO9HARm-15" edge="1">
          <mxGeometry width="100" height="100" relative="1" as="geometry">
            <Array as="points">
              <mxPoint x="78" y="150" />
            </Array>
            <mxPoint x="78" y="110" as="targetPoint" />
          </mxGeometry>
        </mxCell>
        <mxCell id="tVwt7a-vGTSm7AO9HARm-25" value="Ativo" style="html=1;overflow=block;blockSpacing=1;whiteSpace=wrap;fontSize=13;fontColor=#1d262b;spacing=0;strokeColor=none;strokeOpacity=100;rounded=1;absoluteArcSize=1;arcSize=9;fillColor=none;strokeWidth=2.3;lucidId=WwIgIZC2Us4S;" parent="tVwt7a-vGTSm7AO9HARm-72" vertex="1">
          <mxGeometry x="85" y="99" width="38" height="21" as="geometry" />
        </mxCell>
        <mxCell id="tVwt7a-vGTSm7AO9HARm-75" value="" style="group" parent="1" vertex="1" connectable="0">
          <mxGeometry x="394" y="-1496" width="432" height="248" as="geometry" />
        </mxCell>
        <mxCell id="tVwt7a-vGTSm7AO9HARm-35" value="Empresas" style="html=1;overflow=block;blockSpacing=1;whiteSpace=wrap;fontSize=13;spacing=9;strokeColor=#4881b3;strokeOpacity=100;rounded=1;absoluteArcSize=1;arcSize=9;fillColor=#F5FBFF;strokeWidth=NaN;lucidId=YFIgJJDr07dI;" parent="tVwt7a-vGTSm7AO9HARm-75" vertex="1">
          <mxGeometry y="158" width="120" height="90" as="geometry" />
        </mxCell>
        <mxCell id="tVwt7a-vGTSm7AO9HARm-36" value="RazaoSocial" style="html=1;overflow=block;blockSpacing=1;whiteSpace=wrap;fontSize=13;fontColor=#1d262b;spacing=0;strokeColor=none;strokeOpacity=100;rounded=1;absoluteArcSize=1;arcSize=9;fillColor=none;strokeWidth=1.5;lucidId=hGIgZtu4FHfW;" parent="tVwt7a-vGTSm7AO9HARm-75" vertex="1">
          <mxGeometry x="26" y="14" width="76" height="20" as="geometry" />
        </mxCell>
        <mxCell id="tVwt7a-vGTSm7AO9HARm-37" value="" style="html=1;jettySize=18;whiteSpace=wrap;fontSize=13;strokeColor=#224C72;strokeWidth=1.5;rounded=1;arcSize=12;edgeStyle=orthogonalEdgeStyle;startArrow=none;endArrow=oval;endFill=1;endSize=16;exitX=0.015;exitY=-0.005;exitPerimeter=0;lucidId=9GIg_aUPuRqu;" parent="tVwt7a-vGTSm7AO9HARm-75" source="tVwt7a-vGTSm7AO9HARm-35" edge="1">
          <mxGeometry width="100" height="100" relative="1" as="geometry">
            <Array as="points" />
            <mxPoint x="2" as="targetPoint" />
          </mxGeometry>
        </mxCell>
        <mxCell id="tVwt7a-vGTSm7AO9HARm-39" value="" style="html=1;jettySize=18;whiteSpace=wrap;fontSize=13;strokeColor=#224C72;strokeWidth=1.5;rounded=1;arcSize=12;edgeStyle=orthogonalEdgeStyle;startArrow=none;endArrow=oval;endFill=0;endSize=16;lucidId=BHIgAL4QQWJ4;exitX=0.142;exitY=-0.014;exitDx=0;exitDy=0;exitPerimeter=0;" parent="tVwt7a-vGTSm7AO9HARm-75" source="tVwt7a-vGTSm7AO9HARm-35" edge="1">
          <mxGeometry width="100" height="100" relative="1" as="geometry">
            <Array as="points" />
            <mxPoint x="17" y="150" as="sourcePoint" />
            <mxPoint x="17" y="23" as="targetPoint" />
          </mxGeometry>
        </mxCell>
        <mxCell id="tVwt7a-vGTSm7AO9HARm-40" value="" style="html=1;jettySize=18;whiteSpace=wrap;fontSize=13;strokeColor=#224C72;strokeWidth=1.5;rounded=1;arcSize=12;edgeStyle=orthogonalEdgeStyle;startArrow=none;endArrow=oval;endFill=0;endSize=16;exitX=0.304;exitY=-0.014;exitPerimeter=0;lucidId=MIIg4pA5IY~K;exitDx=0;exitDy=0;" parent="tVwt7a-vGTSm7AO9HARm-75" source="tVwt7a-vGTSm7AO9HARm-35" edge="1">
          <mxGeometry width="100" height="100" relative="1" as="geometry">
            <Array as="points" />
            <mxPoint x="36" y="48" as="targetPoint" />
            <mxPoint x="36.360000000000014" y="160.91999999999985" as="sourcePoint" />
          </mxGeometry>
        </mxCell>
        <mxCell id="tVwt7a-vGTSm7AO9HARm-41" value="" style="html=1;jettySize=18;whiteSpace=wrap;fontSize=13;strokeColor=#224C72;strokeWidth=1.5;rounded=1;arcSize=12;edgeStyle=orthogonalEdgeStyle;startArrow=none;endArrow=oval;endFill=0;endSize=16;lucidId=SIIgNRyhLvN7;exitX=0.435;exitY=0;exitDx=0;exitDy=0;exitPerimeter=0;" parent="tVwt7a-vGTSm7AO9HARm-75" source="tVwt7a-vGTSm7AO9HARm-35" edge="1">
          <mxGeometry width="100" height="100" relative="1" as="geometry">
            <Array as="points" />
            <mxPoint x="52" y="150" as="sourcePoint" />
            <mxPoint x="52" y="72" as="targetPoint" />
          </mxGeometry>
        </mxCell>
        <mxCell id="tVwt7a-vGTSm7AO9HARm-42" value="" style="html=1;jettySize=18;whiteSpace=wrap;fontSize=13;strokeColor=#224C72;strokeWidth=1.5;rounded=1;arcSize=12;edgeStyle=orthogonalEdgeStyle;startArrow=none;endArrow=oval;endFill=0;endSize=16;lucidId=YIIggoll_Ndh;" parent="tVwt7a-vGTSm7AO9HARm-75" edge="1">
          <mxGeometry width="100" height="100" relative="1" as="geometry">
            <Array as="points" />
            <mxPoint x="71" y="157" as="sourcePoint" />
            <mxPoint x="71" y="97" as="targetPoint" />
          </mxGeometry>
        </mxCell>
        <mxCell id="tVwt7a-vGTSm7AO9HARm-43" value="TipoDeEmpresa" style="html=1;overflow=block;blockSpacing=1;whiteSpace=wrap;fontSize=13;fontColor=#1d262b;spacing=0;strokeColor=none;strokeOpacity=100;rounded=1;absoluteArcSize=1;arcSize=9;fillColor=none;strokeWidth=1.5;lucidId=0IIg-uV35-E5;" parent="tVwt7a-vGTSm7AO9HARm-75" vertex="1">
          <mxGeometry x="46" y="40" width="93" height="18" as="geometry" />
        </mxCell>
        <mxCell id="tVwt7a-vGTSm7AO9HARm-44" value="Descricao" style="html=1;overflow=block;blockSpacing=1;whiteSpace=wrap;fontSize=13;fontColor=#1d262b;spacing=0;strokeColor=none;strokeOpacity=100;rounded=1;absoluteArcSize=1;arcSize=9;fillColor=none;strokeWidth=1.5;lucidId=kJIgqoQvrq0y;" parent="tVwt7a-vGTSm7AO9HARm-75" vertex="1">
          <mxGeometry x="79.5" y="89" width="63" height="16" as="geometry" />
        </mxCell>
        <mxCell id="tVwt7a-vGTSm7AO9HARm-45" value="NaturezaJuridica" style="html=1;overflow=block;blockSpacing=1;whiteSpace=wrap;fontSize=13;fontColor=#1d262b;spacing=0;strokeColor=none;strokeOpacity=100;rounded=1;absoluteArcSize=1;arcSize=9;fillColor=none;strokeWidth=1.5;lucidId=8KIgS8rz4l41;" parent="tVwt7a-vGTSm7AO9HARm-75" vertex="1">
          <mxGeometry x="58" y="64" width="106" height="18" as="geometry" />
        </mxCell>
        <mxCell id="tVwt7a-vGTSm7AO9HARm-46" value="" style="html=1;jettySize=18;whiteSpace=wrap;fontSize=13;strokeColor=#224C72;strokeWidth=1.5;rounded=1;arcSize=12;edgeStyle=orthogonalEdgeStyle;startArrow=none;endArrow=oval;endFill=0;endSize=16;exitX=0.797;exitY=-0.012;exitPerimeter=0;lucidId=sLIgwHOLy.2u;" parent="tVwt7a-vGTSm7AO9HARm-75" edge="1">
          <mxGeometry width="100" height="100" relative="1" as="geometry">
            <Array as="points" />
            <mxPoint x="87.63999999999999" y="156.91999999999985" as="sourcePoint" />
            <mxPoint x="89" y="127" as="targetPoint" />
          </mxGeometry>
        </mxCell>
        <mxCell id="tVwt7a-vGTSm7AO9HARm-47" value="Status" style="html=1;overflow=block;blockSpacing=1;whiteSpace=wrap;fontSize=13;fontColor=#1d262b;spacing=0;strokeColor=none;strokeOpacity=100;rounded=1;absoluteArcSize=1;arcSize=9;fillColor=none;strokeWidth=1.5;lucidId=VMIgeRNOxklo;" parent="tVwt7a-vGTSm7AO9HARm-75" vertex="1">
          <mxGeometry x="98" y="119" width="40" height="17" as="geometry" />
        </mxCell>
        <mxCell id="tVwt7a-vGTSm7AO9HARm-53" value="" style="html=1;jettySize=18;whiteSpace=wrap;fontSize=13;strokeColor=#224C72;strokeWidth=1.5;rounded=1;arcSize=12;edgeStyle=orthogonalEdgeStyle;startArrow=none;endArrow=oval;endFill=1;endSize=16;exitX=0.016;exitY=-0.006;exitPerimeter=0;lucidId=GGJgjXmGAtEy;" parent="tVwt7a-vGTSm7AO9HARm-75" edge="1">
          <mxGeometry width="100" height="100" relative="1" as="geometry">
            <Array as="points" />
            <mxPoint x="315" y="37" as="targetPoint" />
            <mxPoint x="314.9200000000001" y="158.46000000000004" as="sourcePoint" />
          </mxGeometry>
        </mxCell>
        <mxCell id="tVwt7a-vGTSm7AO9HARm-54" value="Possui" style="html=1;overflow=block;blockSpacing=1;whiteSpace=wrap;rhombus;fontSize=13;spacing=3.8;strokeColor=#4881b3;strokeOpacity=100;rounded=1;absoluteArcSize=1;arcSize=9;fillColor=#F5FBFF;strokeWidth=1.5;lucidId=lMJgxPiUDe9D;" parent="tVwt7a-vGTSm7AO9HARm-75" vertex="1">
          <mxGeometry x="172" y="167" width="87" height="72" as="geometry" />
        </mxCell>
        <mxCell id="tVwt7a-vGTSm7AO9HARm-55" value="Cargos" style="html=1;overflow=block;blockSpacing=1;whiteSpace=wrap;fontSize=13;spacing=9;strokeColor=#4881b3;strokeOpacity=100;rounded=1;absoluteArcSize=1;arcSize=9;fillColor=#F5FBFF;strokeWidth=NaN;lucidId=hGJg~UO_usF6;" parent="tVwt7a-vGTSm7AO9HARm-75" vertex="1">
          <mxGeometry x="312" y="158" width="120" height="90" as="geometry" />
        </mxCell>
        <mxCell id="tVwt7a-vGTSm7AO9HARm-56" value="Codigo" style="html=1;overflow=block;blockSpacing=1;whiteSpace=wrap;fontSize=13;fontColor=#1d262b;spacing=0;strokeColor=none;strokeOpacity=100;rounded=1;absoluteArcSize=1;arcSize=9;fillColor=none;strokeWidth=1.5;lucidId=KGJghGDAWpXa;" parent="tVwt7a-vGTSm7AO9HARm-75" vertex="1">
          <mxGeometry x="325" y="29" width="45" height="12" as="geometry" />
        </mxCell>
        <mxCell id="tVwt7a-vGTSm7AO9HARm-57" value="" style="html=1;jettySize=18;whiteSpace=wrap;fontSize=13;strokeColor=#224C72;strokeWidth=1.5;rounded=1;arcSize=12;edgeStyle=orthogonalEdgeStyle;startArrow=none;endArrow=oval;endFill=0;endSize=16;exitX=0.156;exitY=-0.012;exitPerimeter=0;lucidId=-GJgxsTZHF9b;" parent="tVwt7a-vGTSm7AO9HARm-75" source="tVwt7a-vGTSm7AO9HARm-55" edge="1">
          <mxGeometry width="100" height="100" relative="1" as="geometry">
            <Array as="points" />
            <mxPoint x="331" y="63" as="targetPoint" />
          </mxGeometry>
        </mxCell>
        <mxCell id="tVwt7a-vGTSm7AO9HARm-58" value="Descricao" style="html=1;overflow=block;blockSpacing=1;whiteSpace=wrap;fontSize=13;fontColor=#1d262b;spacing=0;strokeColor=none;strokeOpacity=100;rounded=1;absoluteArcSize=1;arcSize=9;fillColor=none;strokeWidth=1.5;lucidId=_GJgO~j-ajev;" parent="tVwt7a-vGTSm7AO9HARm-75" vertex="1">
          <mxGeometry x="341" y="56" width="58" height="12" as="geometry" />
        </mxCell>
        <mxCell id="tVwt7a-vGTSm7AO9HARm-59" value="" style="html=1;jettySize=18;whiteSpace=wrap;fontSize=13;strokeColor=#224C72;strokeWidth=1.5;rounded=1;arcSize=12;edgeStyle=orthogonalEdgeStyle;startArrow=none;endArrow=oval;endFill=0;endSize=16;exitX=0.305;exitY=-0.012;exitPerimeter=0;lucidId=FHJgP1LxmJK6;" parent="tVwt7a-vGTSm7AO9HARm-75" source="tVwt7a-vGTSm7AO9HARm-55" edge="1">
          <mxGeometry width="100" height="100" relative="1" as="geometry">
            <Array as="points" />
            <mxPoint x="349" y="90" as="targetPoint" />
          </mxGeometry>
        </mxCell>
        <mxCell id="tVwt7a-vGTSm7AO9HARm-60" value="Empresa" style="html=1;overflow=block;blockSpacing=1;whiteSpace=wrap;fontSize=13;fontColor=#1d262b;spacing=0;strokeColor=none;strokeOpacity=100;rounded=1;absoluteArcSize=1;arcSize=17;fillColor=none;strokeWidth=1.5;lucidId=HHJgamnCqKF~;" parent="tVwt7a-vGTSm7AO9HARm-75" vertex="1">
          <mxGeometry x="359" y="82" width="56" height="16" as="geometry" />
        </mxCell>
        <mxCell id="tVwt7a-vGTSm7AO9HARm-61" value="" style="html=1;jettySize=18;whiteSpace=wrap;fontSize=13;strokeColor=#224C72;strokeWidth=1.5;rounded=1;arcSize=12;edgeStyle=orthogonalEdgeStyle;startArrow=none;endArrow=oval;endFill=0;endSize=16;exitX=0.5;exitY=-0.012;exitPerimeter=0;lucidId=oJJgOILWXj3x;" parent="tVwt7a-vGTSm7AO9HARm-75" edge="1">
          <mxGeometry width="100" height="100" relative="1" as="geometry">
            <Array as="points" />
            <mxPoint x="364" y="156.92000000000007" as="sourcePoint" />
            <mxPoint x="364" y="117" as="targetPoint" />
          </mxGeometry>
        </mxCell>
        <mxCell id="tVwt7a-vGTSm7AO9HARm-62" value="Status" style="html=1;overflow=block;blockSpacing=1;whiteSpace=wrap;fontSize=13;fontColor=#1d262b;spacing=0;strokeColor=none;strokeOpacity=100;rounded=1;absoluteArcSize=1;arcSize=9;fillColor=none;strokeWidth=1.5;lucidId=pJJgagtvBwJT;" parent="tVwt7a-vGTSm7AO9HARm-75" vertex="1">
          <mxGeometry x="372" y="110" width="44" height="13" as="geometry" />
        </mxCell>
        <mxCell id="tVwt7a-vGTSm7AO9HARm-63" value="" style="html=1;jettySize=18;whiteSpace=wrap;fontSize=13;strokeColor=#224C72;strokeWidth=1.5;rounded=1;arcSize=12;edgeStyle=orthogonalEdgeStyle;startArrow=none;endArrow=none;exitX=0.984;exitY=0.5;exitPerimeter=0;entryX=-0.009;entryY=0.5;entryPerimeter=0;lucidId=NMJgZ3W6JXwm;" parent="tVwt7a-vGTSm7AO9HARm-75" source="tVwt7a-vGTSm7AO9HARm-54" target="tVwt7a-vGTSm7AO9HARm-55" edge="1">
          <mxGeometry width="100" height="100" relative="1" as="geometry">
            <Array as="points" />
          </mxGeometry>
        </mxCell>
        <mxCell id="tVwt7a-vGTSm7AO9HARm-64" value="" style="html=1;jettySize=18;whiteSpace=wrap;fontSize=13;strokeColor=#224C72;strokeWidth=1.5;rounded=1;arcSize=12;edgeStyle=orthogonalEdgeStyle;startArrow=none;endArrow=none;exitX=0.016;exitY=0.5;exitPerimeter=0;entryX=1.009;entryY=0.5;entryPerimeter=0;lucidId=ZMJgaEvQqTVv;" parent="tVwt7a-vGTSm7AO9HARm-75" source="tVwt7a-vGTSm7AO9HARm-54" target="tVwt7a-vGTSm7AO9HARm-35" edge="1">
          <mxGeometry width="100" height="100" relative="1" as="geometry">
            <Array as="points" />
          </mxGeometry>
        </mxCell>
        <mxCell id="tVwt7a-vGTSm7AO9HARm-65" value="(1,n)" style="html=1;overflow=block;blockSpacing=1;whiteSpace=wrap;fontSize=13;fontColor=#1d262b;spacing=0;strokeColor=none;strokeOpacity=100;rounded=1;absoluteArcSize=1;arcSize=9;fillColor=none;strokeWidth=1.5;lucidId=cQJgab2__2.J;" parent="tVwt7a-vGTSm7AO9HARm-75" vertex="1">
          <mxGeometry x="120" y="184" width="37" height="18" as="geometry" />
        </mxCell>
        <mxCell id="tVwt7a-vGTSm7AO9HARm-38" value="Codigo" style="html=1;overflow=block;blockSpacing=1;whiteSpace=wrap;fontSize=13;fontColor=#1d262b;spacing=0;strokeColor=none;strokeOpacity=100;rounded=1;absoluteArcSize=1;arcSize=9;fillColor=none;strokeWidth=1.5;lucidId=cHIgNz22wgCt;" parent="tVwt7a-vGTSm7AO9HARm-75" vertex="1">
          <mxGeometry x="10" y="-10" width="45" height="20" as="geometry" />
        </mxCell>
        <mxCell id="tVwt7a-vGTSm7AO9HARm-79" value="(0,n)" style="html=1;overflow=block;blockSpacing=1;whiteSpace=wrap;fontSize=13;fontColor=#1d262b;spacing=0;strokeColor=none;strokeOpacity=100;rounded=1;absoluteArcSize=1;arcSize=9;fillColor=none;strokeWidth=1.5;lucidId=cQJgab2__2.J;" parent="tVwt7a-vGTSm7AO9HARm-75" vertex="1">
          <mxGeometry x="270" y="184" width="37" height="18" as="geometry" />
        </mxCell>
        <mxCell id="INvLSEzhm12kDnQWH1qi-1" value="Estabelecimentos" style="html=1;overflow=block;blockSpacing=1;whiteSpace=wrap;fontSize=13;spacing=9;strokeColor=#4881b3;strokeOpacity=100;rounded=1;absoluteArcSize=1;arcSize=9;fillColor=#F5FBFF;strokeWidth=NaN;lucidId=YFIgJJDr07dI;" vertex="1" parent="1">
          <mxGeometry x="64" y="-1338" width="120" height="90" as="geometry" />
        </mxCell>
        <mxCell id="INvLSEzhm12kDnQWH1qi-2" value="NumEscricao" style="html=1;overflow=block;blockSpacing=1;whiteSpace=wrap;fontSize=13;fontColor=#1d262b;spacing=0;strokeColor=none;strokeOpacity=100;rounded=1;absoluteArcSize=1;arcSize=9;fillColor=none;strokeWidth=1.5;lucidId=hGIgZtu4FHfW;" vertex="1" parent="1">
          <mxGeometry x="90" y="-1482" width="76" height="20" as="geometry" />
        </mxCell>
        <mxCell id="INvLSEzhm12kDnQWH1qi-3" value="" style="html=1;jettySize=18;whiteSpace=wrap;fontSize=13;strokeColor=#224C72;strokeWidth=1.5;rounded=1;arcSize=12;edgeStyle=orthogonalEdgeStyle;startArrow=none;endArrow=oval;endFill=1;endSize=16;exitX=0.015;exitY=-0.005;exitPerimeter=0;lucidId=9GIg_aUPuRqu;" edge="1" parent="1" source="INvLSEzhm12kDnQWH1qi-1">
          <mxGeometry width="100" height="100" relative="1" as="geometry">
            <Array as="points" />
            <mxPoint x="66" y="-1496" as="targetPoint" />
          </mxGeometry>
        </mxCell>
        <mxCell id="INvLSEzhm12kDnQWH1qi-4" value="" style="html=1;jettySize=18;whiteSpace=wrap;fontSize=13;strokeColor=#224C72;strokeWidth=1.5;rounded=1;arcSize=12;edgeStyle=orthogonalEdgeStyle;startArrow=none;endArrow=oval;endFill=0;endSize=16;lucidId=BHIgAL4QQWJ4;exitX=0.142;exitY=-0.014;exitDx=0;exitDy=0;exitPerimeter=0;" edge="1" parent="1" source="INvLSEzhm12kDnQWH1qi-1">
          <mxGeometry width="100" height="100" relative="1" as="geometry">
            <Array as="points" />
            <mxPoint x="81" y="-1346" as="sourcePoint" />
            <mxPoint x="81" y="-1473" as="targetPoint" />
          </mxGeometry>
        </mxCell>
        <mxCell id="INvLSEzhm12kDnQWH1qi-5" value="" style="html=1;jettySize=18;whiteSpace=wrap;fontSize=13;strokeColor=#224C72;strokeWidth=1.5;rounded=1;arcSize=12;edgeStyle=orthogonalEdgeStyle;startArrow=none;endArrow=oval;endFill=0;endSize=16;exitX=0.304;exitY=-0.014;exitPerimeter=0;lucidId=MIIg4pA5IY~K;exitDx=0;exitDy=0;" edge="1" parent="1" source="INvLSEzhm12kDnQWH1qi-1">
          <mxGeometry width="100" height="100" relative="1" as="geometry">
            <Array as="points" />
            <mxPoint x="100" y="-1448" as="targetPoint" />
            <mxPoint x="100.36000000000013" y="-1335.0800000000002" as="sourcePoint" />
          </mxGeometry>
        </mxCell>
        <mxCell id="INvLSEzhm12kDnQWH1qi-6" value="" style="html=1;jettySize=18;whiteSpace=wrap;fontSize=13;strokeColor=#224C72;strokeWidth=1.5;rounded=1;arcSize=12;edgeStyle=orthogonalEdgeStyle;startArrow=none;endArrow=oval;endFill=0;endSize=16;lucidId=SIIgNRyhLvN7;exitX=0.435;exitY=0;exitDx=0;exitDy=0;exitPerimeter=0;" edge="1" parent="1" source="INvLSEzhm12kDnQWH1qi-1">
          <mxGeometry width="100" height="100" relative="1" as="geometry">
            <Array as="points" />
            <mxPoint x="116" y="-1346" as="sourcePoint" />
            <mxPoint x="116" y="-1424" as="targetPoint" />
          </mxGeometry>
        </mxCell>
        <mxCell id="INvLSEzhm12kDnQWH1qi-7" value="" style="html=1;jettySize=18;whiteSpace=wrap;fontSize=13;strokeColor=#224C72;strokeWidth=1.5;rounded=1;arcSize=12;edgeStyle=orthogonalEdgeStyle;startArrow=none;endArrow=oval;endFill=0;endSize=16;lucidId=YIIggoll_Ndh;" edge="1" parent="1">
          <mxGeometry width="100" height="100" relative="1" as="geometry">
            <Array as="points" />
            <mxPoint x="135" y="-1339" as="sourcePoint" />
            <mxPoint x="135" y="-1399" as="targetPoint" />
          </mxGeometry>
        </mxCell>
        <mxCell id="INvLSEzhm12kDnQWH1qi-8" value="Empresa" style="html=1;overflow=block;blockSpacing=1;whiteSpace=wrap;fontSize=13;fontColor=#1d262b;spacing=0;strokeColor=none;strokeOpacity=100;rounded=1;absoluteArcSize=1;arcSize=9;fillColor=none;strokeWidth=1.5;lucidId=0IIg-uV35-E5;" vertex="1" parent="1">
          <mxGeometry x="110" y="-1456" width="64" height="18" as="geometry" />
        </mxCell>
        <mxCell id="INvLSEzhm12kDnQWH1qi-9" value="CENAE" style="html=1;overflow=block;blockSpacing=1;whiteSpace=wrap;fontSize=13;fontColor=#1d262b;spacing=0;strokeColor=none;strokeOpacity=100;rounded=1;absoluteArcSize=1;arcSize=9;fillColor=none;strokeWidth=1.5;lucidId=kJIgqoQvrq0y;" vertex="1" parent="1">
          <mxGeometry x="136.5" y="-1409" width="63" height="16" as="geometry" />
        </mxCell>
        <mxCell id="INvLSEzhm12kDnQWH1qi-10" value="Descricao" style="html=1;overflow=block;blockSpacing=1;whiteSpace=wrap;fontSize=13;fontColor=#1d262b;spacing=0;strokeColor=none;strokeOpacity=100;rounded=1;absoluteArcSize=1;arcSize=9;fillColor=none;strokeWidth=1.5;lucidId=8KIgS8rz4l41;" vertex="1" parent="1">
          <mxGeometry x="122" y="-1432" width="72" height="18" as="geometry" />
        </mxCell>
        <mxCell id="INvLSEzhm12kDnQWH1qi-11" value="" style="html=1;jettySize=18;whiteSpace=wrap;fontSize=13;strokeColor=#224C72;strokeWidth=1.5;rounded=1;arcSize=12;edgeStyle=orthogonalEdgeStyle;startArrow=none;endArrow=oval;endFill=0;endSize=16;exitX=0.797;exitY=-0.012;exitPerimeter=0;lucidId=sLIgwHOLy.2u;" edge="1" parent="1">
          <mxGeometry width="100" height="100" relative="1" as="geometry">
            <Array as="points">
              <mxPoint x="153" y="-1339" />
            </Array>
            <mxPoint x="151.63999999999987" y="-1339.0800000000002" as="sourcePoint" />
            <mxPoint x="154" y="-1379" as="targetPoint" />
          </mxGeometry>
        </mxCell>
        <mxCell id="INvLSEzhm12kDnQWH1qi-12" value="Status" style="html=1;overflow=block;blockSpacing=1;whiteSpace=wrap;fontSize=13;fontColor=#1d262b;spacing=0;strokeColor=none;strokeOpacity=100;rounded=1;absoluteArcSize=1;arcSize=9;fillColor=none;strokeWidth=1.5;lucidId=VMIgeRNOxklo;" vertex="1" parent="1">
          <mxGeometry x="184" y="-1366" width="40" height="17" as="geometry" />
        </mxCell>
        <mxCell id="INvLSEzhm12kDnQWH1qi-19" style="edgeStyle=orthogonalEdgeStyle;rounded=0;orthogonalLoop=1;jettySize=auto;html=1;exitX=1;exitY=0.5;exitDx=0;exitDy=0;endArrow=none;endFill=0;" edge="1" parent="1" source="INvLSEzhm12kDnQWH1qi-14" target="tVwt7a-vGTSm7AO9HARm-35">
          <mxGeometry relative="1" as="geometry" />
        </mxCell>
        <mxCell id="INvLSEzhm12kDnQWH1qi-14" value="Possui" style="html=1;overflow=block;blockSpacing=1;whiteSpace=wrap;rhombus;fontSize=13;spacing=3.8;strokeColor=#4881b3;strokeOpacity=100;rounded=1;absoluteArcSize=1;arcSize=9;fillColor=#F5FBFF;strokeWidth=1.5;lucidId=lMJgxPiUDe9D;" vertex="1" parent="1">
          <mxGeometry x="236" y="-1329" width="87" height="72" as="geometry" />
        </mxCell>
        <mxCell id="INvLSEzhm12kDnQWH1qi-15" value="" style="html=1;jettySize=18;whiteSpace=wrap;fontSize=13;strokeColor=#224C72;strokeWidth=1.5;rounded=1;arcSize=12;edgeStyle=orthogonalEdgeStyle;startArrow=none;endArrow=none;exitX=0.016;exitY=0.5;exitPerimeter=0;entryX=1.009;entryY=0.5;entryPerimeter=0;lucidId=ZMJgaEvQqTVv;" edge="1" parent="1" source="INvLSEzhm12kDnQWH1qi-14" target="INvLSEzhm12kDnQWH1qi-1">
          <mxGeometry width="100" height="100" relative="1" as="geometry">
            <Array as="points" />
          </mxGeometry>
        </mxCell>
        <mxCell id="INvLSEzhm12kDnQWH1qi-16" value="(1,1)" style="html=1;overflow=block;blockSpacing=1;whiteSpace=wrap;fontSize=13;fontColor=#1d262b;spacing=0;strokeColor=none;strokeOpacity=100;rounded=1;absoluteArcSize=1;arcSize=9;fillColor=none;strokeWidth=1.5;lucidId=cQJgab2__2.J;" vertex="1" parent="1">
          <mxGeometry x="357" y="-1313" width="37" height="18" as="geometry" />
        </mxCell>
        <mxCell id="INvLSEzhm12kDnQWH1qi-17" value="Codigo" style="html=1;overflow=block;blockSpacing=1;whiteSpace=wrap;fontSize=13;fontColor=#1d262b;spacing=0;strokeColor=none;strokeOpacity=100;rounded=1;absoluteArcSize=1;arcSize=9;fillColor=none;strokeWidth=1.5;lucidId=cHIgNz22wgCt;" vertex="1" parent="1">
          <mxGeometry x="74" y="-1506" width="45" height="20" as="geometry" />
        </mxCell>
        <mxCell id="INvLSEzhm12kDnQWH1qi-22" value="(1,n)" style="html=1;overflow=block;blockSpacing=1;whiteSpace=wrap;fontSize=13;fontColor=#1d262b;spacing=0;strokeColor=none;strokeOpacity=100;rounded=1;absoluteArcSize=1;arcSize=9;fillColor=none;strokeWidth=1.5;lucidId=cQJgab2__2.J;" vertex="1" parent="1">
          <mxGeometry x="184" y="-1313" width="37" height="18" as="geometry" />
        </mxCell>
        <mxCell id="INvLSEzhm12kDnQWH1qi-28" value="" style="html=1;jettySize=18;whiteSpace=wrap;fontSize=13;strokeColor=#224C72;strokeWidth=1.5;rounded=1;arcSize=12;edgeStyle=orthogonalEdgeStyle;startArrow=none;endArrow=oval;endFill=0;endSize=16;lucidId=oJJgOILWXj3x;" edge="1" parent="1">
          <mxGeometry width="100" height="100" relative="1" as="geometry">
            <Array as="points" />
            <mxPoint x="174" y="-1339" as="sourcePoint" />
            <mxPoint x="174" y="-1359" as="targetPoint" />
          </mxGeometry>
        </mxCell>
        <mxCell id="INvLSEzhm12kDnQWH1qi-29" value="GrauDeRisco" style="html=1;overflow=block;blockSpacing=1;whiteSpace=wrap;fontSize=13;fontColor=#1d262b;spacing=0;strokeColor=none;strokeOpacity=100;rounded=1;absoluteArcSize=1;arcSize=9;fillColor=none;strokeWidth=1.5;lucidId=8KIgS8rz4l41;" vertex="1" parent="1">
          <mxGeometry x="164" y="-1388" width="72" height="18" as="geometry" />
        </mxCell>
        <mxCell id="INvLSEzhm12kDnQWH1qi-30" value="&lt;font style=&quot;font-size: 12px;&quot;&gt;ProfissionaisDeSST&lt;/font&gt;" style="html=1;overflow=block;blockSpacing=1;whiteSpace=wrap;fontSize=13;spacing=9;strokeColor=#4881b3;strokeOpacity=100;rounded=1;absoluteArcSize=1;arcSize=9;fillColor=#F5FBFF;strokeWidth=NaN;lucidId=YFIgJJDr07dI;" vertex="1" parent="1">
          <mxGeometry x="50" y="-1611" width="120" height="90" as="geometry" />
        </mxCell>
        <mxCell id="INvLSEzhm12kDnQWH1qi-31" value="Pessoa" style="html=1;overflow=block;blockSpacing=1;whiteSpace=wrap;fontSize=13;fontColor=#1d262b;spacing=0;strokeColor=none;strokeOpacity=100;rounded=1;absoluteArcSize=1;arcSize=9;fillColor=none;strokeWidth=1.5;lucidId=hGIgZtu4FHfW;" vertex="1" parent="1">
          <mxGeometry x="76" y="-1755" width="48" height="20" as="geometry" />
        </mxCell>
        <mxCell id="INvLSEzhm12kDnQWH1qi-32" value="" style="html=1;jettySize=18;whiteSpace=wrap;fontSize=13;strokeColor=#224C72;strokeWidth=1.5;rounded=1;arcSize=12;edgeStyle=orthogonalEdgeStyle;startArrow=none;endArrow=oval;endFill=1;endSize=16;exitX=0.015;exitY=-0.005;exitPerimeter=0;lucidId=9GIg_aUPuRqu;" edge="1" parent="1" source="INvLSEzhm12kDnQWH1qi-30">
          <mxGeometry width="100" height="100" relative="1" as="geometry">
            <Array as="points" />
            <mxPoint x="52" y="-1769" as="targetPoint" />
          </mxGeometry>
        </mxCell>
        <mxCell id="INvLSEzhm12kDnQWH1qi-33" value="" style="html=1;jettySize=18;whiteSpace=wrap;fontSize=13;strokeColor=#224C72;strokeWidth=1.5;rounded=1;arcSize=12;edgeStyle=orthogonalEdgeStyle;startArrow=none;endArrow=oval;endFill=0;endSize=16;lucidId=BHIgAL4QQWJ4;exitX=0.142;exitY=-0.014;exitDx=0;exitDy=0;exitPerimeter=0;" edge="1" parent="1" source="INvLSEzhm12kDnQWH1qi-30">
          <mxGeometry width="100" height="100" relative="1" as="geometry">
            <Array as="points" />
            <mxPoint x="67" y="-1619" as="sourcePoint" />
            <mxPoint x="67" y="-1746" as="targetPoint" />
          </mxGeometry>
        </mxCell>
        <mxCell id="INvLSEzhm12kDnQWH1qi-34" value="" style="html=1;jettySize=18;whiteSpace=wrap;fontSize=13;strokeColor=#224C72;strokeWidth=1.5;rounded=1;arcSize=12;edgeStyle=orthogonalEdgeStyle;startArrow=none;endArrow=oval;endFill=0;endSize=16;exitX=0.304;exitY=-0.014;exitPerimeter=0;lucidId=MIIg4pA5IY~K;exitDx=0;exitDy=0;" edge="1" parent="1" source="INvLSEzhm12kDnQWH1qi-30">
          <mxGeometry width="100" height="100" relative="1" as="geometry">
            <Array as="points" />
            <mxPoint x="86" y="-1721" as="targetPoint" />
            <mxPoint x="86.36000000000013" y="-1608.0800000000002" as="sourcePoint" />
          </mxGeometry>
        </mxCell>
        <mxCell id="INvLSEzhm12kDnQWH1qi-35" value="" style="html=1;jettySize=18;whiteSpace=wrap;fontSize=13;strokeColor=#224C72;strokeWidth=1.5;rounded=1;arcSize=12;edgeStyle=orthogonalEdgeStyle;startArrow=none;endArrow=oval;endFill=0;endSize=16;lucidId=SIIgNRyhLvN7;exitX=0.435;exitY=0;exitDx=0;exitDy=0;exitPerimeter=0;" edge="1" parent="1" source="INvLSEzhm12kDnQWH1qi-30">
          <mxGeometry width="100" height="100" relative="1" as="geometry">
            <Array as="points" />
            <mxPoint x="102" y="-1619" as="sourcePoint" />
            <mxPoint x="102" y="-1697" as="targetPoint" />
          </mxGeometry>
        </mxCell>
        <mxCell id="INvLSEzhm12kDnQWH1qi-36" value="" style="html=1;jettySize=18;whiteSpace=wrap;fontSize=13;strokeColor=#224C72;strokeWidth=1.5;rounded=1;arcSize=12;edgeStyle=orthogonalEdgeStyle;startArrow=none;endArrow=oval;endFill=0;endSize=16;lucidId=YIIggoll_Ndh;" edge="1" parent="1">
          <mxGeometry width="100" height="100" relative="1" as="geometry">
            <Array as="points" />
            <mxPoint x="121" y="-1612" as="sourcePoint" />
            <mxPoint x="121" y="-1672" as="targetPoint" />
          </mxGeometry>
        </mxCell>
        <mxCell id="INvLSEzhm12kDnQWH1qi-37" value="Especializacao" style="html=1;overflow=block;blockSpacing=1;whiteSpace=wrap;fontSize=13;fontColor=#1d262b;spacing=0;strokeColor=none;strokeOpacity=100;rounded=1;absoluteArcSize=1;arcSize=9;fillColor=none;strokeWidth=1.5;lucidId=0IIg-uV35-E5;" vertex="1" parent="1">
          <mxGeometry x="96" y="-1729" width="64" height="18" as="geometry" />
        </mxCell>
        <mxCell id="INvLSEzhm12kDnQWH1qi-38" value="NumDeInscricaoOC" style="html=1;overflow=block;blockSpacing=1;whiteSpace=wrap;fontSize=13;fontColor=#1d262b;spacing=0;strokeColor=none;strokeOpacity=100;rounded=1;absoluteArcSize=1;arcSize=9;fillColor=none;strokeWidth=1.5;lucidId=kJIgqoQvrq0y;" vertex="1" parent="1">
          <mxGeometry x="131.5" y="-1682" width="63" height="16" as="geometry" />
        </mxCell>
        <mxCell id="INvLSEzhm12kDnQWH1qi-39" value="ConselhoDeClasse" style="html=1;overflow=block;blockSpacing=1;whiteSpace=wrap;fontSize=13;fontColor=#1d262b;spacing=0;strokeColor=none;strokeOpacity=100;rounded=1;absoluteArcSize=1;arcSize=9;fillColor=none;strokeWidth=1.5;lucidId=8KIgS8rz4l41;" vertex="1" parent="1">
          <mxGeometry x="112" y="-1706" width="72" height="18" as="geometry" />
        </mxCell>
        <mxCell id="INvLSEzhm12kDnQWH1qi-40" value="" style="html=1;jettySize=18;whiteSpace=wrap;fontSize=13;strokeColor=#224C72;strokeWidth=1.5;rounded=1;arcSize=12;edgeStyle=orthogonalEdgeStyle;startArrow=none;endArrow=oval;endFill=0;endSize=16;exitX=0.797;exitY=-0.012;exitPerimeter=0;lucidId=sLIgwHOLy.2u;" edge="1" parent="1">
          <mxGeometry width="100" height="100" relative="1" as="geometry">
            <Array as="points">
              <mxPoint x="139" y="-1612" />
            </Array>
            <mxPoint x="137.63999999999987" y="-1612.0800000000002" as="sourcePoint" />
            <mxPoint x="140" y="-1652" as="targetPoint" />
          </mxGeometry>
        </mxCell>
        <mxCell id="INvLSEzhm12kDnQWH1qi-41" value="Status" style="html=1;overflow=block;blockSpacing=1;whiteSpace=wrap;fontSize=13;fontColor=#1d262b;spacing=0;strokeColor=none;strokeOpacity=100;rounded=1;absoluteArcSize=1;arcSize=9;fillColor=none;strokeWidth=1.5;lucidId=VMIgeRNOxklo;" vertex="1" parent="1">
          <mxGeometry x="170" y="-1639" width="40" height="17" as="geometry" />
        </mxCell>
        <mxCell id="INvLSEzhm12kDnQWH1qi-49" style="edgeStyle=orthogonalEdgeStyle;rounded=0;orthogonalLoop=1;jettySize=auto;html=1;exitX=1;exitY=0.5;exitDx=0;exitDy=0;entryX=0;entryY=0.5;entryDx=0;entryDy=0;endArrow=none;endFill=0;" edge="1" parent="1" source="INvLSEzhm12kDnQWH1qi-42" target="tVwt7a-vGTSm7AO9HARm-26">
          <mxGeometry relative="1" as="geometry" />
        </mxCell>
        <mxCell id="INvLSEzhm12kDnQWH1qi-42" value="Possui" style="html=1;overflow=block;blockSpacing=1;whiteSpace=wrap;rhombus;fontSize=13;spacing=3.8;strokeColor=#4881b3;strokeOpacity=100;rounded=1;absoluteArcSize=1;arcSize=9;fillColor=#F5FBFF;strokeWidth=1.5;lucidId=lMJgxPiUDe9D;" vertex="1" parent="1">
          <mxGeometry x="222" y="-1602" width="87" height="72" as="geometry" />
        </mxCell>
        <mxCell id="INvLSEzhm12kDnQWH1qi-43" value="" style="html=1;jettySize=18;whiteSpace=wrap;fontSize=13;strokeColor=#224C72;strokeWidth=1.5;rounded=1;arcSize=12;edgeStyle=orthogonalEdgeStyle;startArrow=none;endArrow=none;exitX=0.016;exitY=0.5;exitPerimeter=0;entryX=1.009;entryY=0.5;entryPerimeter=0;lucidId=ZMJgaEvQqTVv;" edge="1" parent="1" source="INvLSEzhm12kDnQWH1qi-42" target="INvLSEzhm12kDnQWH1qi-30">
          <mxGeometry width="100" height="100" relative="1" as="geometry">
            <Array as="points" />
          </mxGeometry>
        </mxCell>
        <mxCell id="INvLSEzhm12kDnQWH1qi-44" value="Codigo" style="html=1;overflow=block;blockSpacing=1;whiteSpace=wrap;fontSize=13;fontColor=#1d262b;spacing=0;strokeColor=none;strokeOpacity=100;rounded=1;absoluteArcSize=1;arcSize=9;fillColor=none;strokeWidth=1.5;lucidId=cHIgNz22wgCt;" vertex="1" parent="1">
          <mxGeometry x="60" y="-1779" width="45" height="20" as="geometry" />
        </mxCell>
        <mxCell id="INvLSEzhm12kDnQWH1qi-45" value="(0,n)" style="html=1;overflow=block;blockSpacing=1;whiteSpace=wrap;fontSize=13;fontColor=#1d262b;spacing=0;strokeColor=none;strokeOpacity=100;rounded=1;absoluteArcSize=1;arcSize=9;fillColor=none;strokeWidth=1.5;lucidId=cQJgab2__2.J;" vertex="1" parent="1">
          <mxGeometry x="170" y="-1586" width="37" height="18" as="geometry" />
        </mxCell>
        <mxCell id="INvLSEzhm12kDnQWH1qi-46" value="" style="html=1;jettySize=18;whiteSpace=wrap;fontSize=13;strokeColor=#224C72;strokeWidth=1.5;rounded=1;arcSize=12;edgeStyle=orthogonalEdgeStyle;startArrow=none;endArrow=oval;endFill=0;endSize=16;lucidId=oJJgOILWXj3x;" edge="1" parent="1">
          <mxGeometry width="100" height="100" relative="1" as="geometry">
            <Array as="points" />
            <mxPoint x="160" y="-1612" as="sourcePoint" />
            <mxPoint x="160" y="-1632" as="targetPoint" />
          </mxGeometry>
        </mxCell>
        <mxCell id="INvLSEzhm12kDnQWH1qi-47" value="UF" style="html=1;overflow=block;blockSpacing=1;whiteSpace=wrap;fontSize=13;fontColor=#1d262b;spacing=0;strokeColor=none;strokeOpacity=100;rounded=1;absoluteArcSize=1;arcSize=9;fillColor=none;strokeWidth=1.5;lucidId=8KIgS8rz4l41;" vertex="1" parent="1">
          <mxGeometry x="150" y="-1661" width="24" height="18" as="geometry" />
        </mxCell>
        <mxCell id="INvLSEzhm12kDnQWH1qi-50" value="(1,n)" style="html=1;overflow=block;blockSpacing=1;whiteSpace=wrap;fontSize=13;fontColor=#1d262b;spacing=0;strokeColor=none;strokeOpacity=100;rounded=1;absoluteArcSize=1;arcSize=9;fillColor=none;strokeWidth=1.5;lucidId=cQJgab2__2.J;" vertex="1" parent="1">
          <mxGeometry x="344" y="-1586" width="37" height="18" as="geometry" />
        </mxCell>
        <mxCell id="tVwt7a-vGTSm7AO9HARm-48" value="Funções" style="html=1;overflow=block;blockSpacing=1;whiteSpace=wrap;fontSize=13;spacing=9;strokeColor=#4881b3;strokeOpacity=100;rounded=1;absoluteArcSize=1;arcSize=9;fillColor=#F5FBFF;strokeWidth=NaN;lucidId=3oJg4G6PWQP5;container=0;" parent="1" vertex="1">
          <mxGeometry x="394" y="-1078" width="120" height="90" as="geometry" />
        </mxCell>
        <mxCell id="tVwt7a-vGTSm7AO9HARm-49" value="" style="html=1;jettySize=18;whiteSpace=wrap;fontSize=13;strokeColor=#224C72;strokeWidth=1.5;rounded=1;arcSize=12;edgeStyle=orthogonalEdgeStyle;startArrow=none;endArrow=oval;endFill=1;endSize=16;exitX=1.008;exitY=0.166;exitPerimeter=0;lucidId=mpJgb_nF3FB8;exitDx=0;exitDy=0;" parent="1" source="tVwt7a-vGTSm7AO9HARm-48" edge="1">
          <mxGeometry width="100" height="100" relative="1" as="geometry">
            <Array as="points" />
            <mxPoint x="554" y="-1063" as="targetPoint" />
          </mxGeometry>
        </mxCell>
        <mxCell id="tVwt7a-vGTSm7AO9HARm-50" value="Codigo" style="html=1;overflow=block;blockSpacing=1;whiteSpace=wrap;fontSize=13;fontColor=#1d262b;spacing=0;strokeColor=none;strokeOpacity=100;rounded=1;absoluteArcSize=1;arcSize=9;fillColor=none;strokeWidth=1.5;lucidId=rpJgtX6YMhCm;container=0;" parent="1" vertex="1">
          <mxGeometry x="567" y="-1069" width="47" height="15" as="geometry" />
        </mxCell>
        <mxCell id="tVwt7a-vGTSm7AO9HARm-51" value="" style="html=1;jettySize=18;whiteSpace=wrap;fontSize=13;strokeColor=#224C72;strokeWidth=1.5;rounded=1;arcSize=12;edgeStyle=orthogonalEdgeStyle;startArrow=none;endArrow=oval;endFill=0;endSize=16;lucidId=TpJgmkkCwtZL;exitX=1;exitY=0.5;exitDx=0;exitDy=0;" parent="1" edge="1">
          <mxGeometry width="100" height="100" relative="1" as="geometry">
            <Array as="points" />
            <mxPoint x="554" y="-1035" as="targetPoint" />
            <mxPoint x="514" y="-1035" as="sourcePoint" />
          </mxGeometry>
        </mxCell>
        <mxCell id="tVwt7a-vGTSm7AO9HARm-52" value="Empresa" style="html=1;overflow=block;blockSpacing=1;whiteSpace=wrap;fontSize=13;fontColor=#1d262b;spacing=0;strokeColor=none;strokeOpacity=100;rounded=1;absoluteArcSize=1;arcSize=9;fillColor=none;strokeWidth=1.5;lucidId=6pJg-71lFJcO;container=0;" parent="1" vertex="1">
          <mxGeometry x="563" y="-1041.5" width="58" height="13" as="geometry" />
        </mxCell>
        <mxCell id="INvLSEzhm12kDnQWH1qi-55" style="edgeStyle=orthogonalEdgeStyle;rounded=0;orthogonalLoop=1;jettySize=auto;html=1;exitX=0.5;exitY=0;exitDx=0;exitDy=0;endArrow=none;endFill=0;" edge="1" parent="1" source="INvLSEzhm12kDnQWH1qi-54">
          <mxGeometry relative="1" as="geometry">
            <mxPoint x="454" y="-1249" as="targetPoint" />
          </mxGeometry>
        </mxCell>
        <mxCell id="INvLSEzhm12kDnQWH1qi-56" value="" style="edgeStyle=orthogonalEdgeStyle;rounded=0;orthogonalLoop=1;jettySize=auto;html=1;endArrow=none;endFill=0;" edge="1" parent="1" source="INvLSEzhm12kDnQWH1qi-54" target="tVwt7a-vGTSm7AO9HARm-48">
          <mxGeometry relative="1" as="geometry" />
        </mxCell>
        <mxCell id="INvLSEzhm12kDnQWH1qi-54" value="Possui" style="html=1;overflow=block;blockSpacing=1;whiteSpace=wrap;rhombus;fontSize=13;spacing=3.8;strokeColor=#4881b3;strokeOpacity=100;rounded=1;absoluteArcSize=1;arcSize=9;fillColor=#F5FBFF;strokeWidth=1.5;lucidId=lMJgxPiUDe9D;" vertex="1" parent="1">
          <mxGeometry x="410.5" y="-1199" width="87" height="72" as="geometry" />
        </mxCell>
        <mxCell id="INvLSEzhm12kDnQWH1qi-57" value="" style="html=1;jettySize=18;whiteSpace=wrap;fontSize=13;strokeColor=#224C72;strokeWidth=1.5;rounded=1;arcSize=12;edgeStyle=orthogonalEdgeStyle;startArrow=none;endArrow=oval;endFill=0;endSize=16;lucidId=TpJgmkkCwtZL;exitX=1;exitY=0.5;exitDx=0;exitDy=0;" edge="1" parent="1">
          <mxGeometry width="100" height="100" relative="1" as="geometry">
            <Array as="points" />
            <mxPoint x="553" y="-1008" as="targetPoint" />
            <mxPoint x="513" y="-1008" as="sourcePoint" />
          </mxGeometry>
        </mxCell>
        <mxCell id="INvLSEzhm12kDnQWH1qi-58" value="Descricao" style="html=1;overflow=block;blockSpacing=1;whiteSpace=wrap;fontSize=13;fontColor=#1d262b;spacing=0;strokeColor=none;strokeOpacity=100;rounded=1;absoluteArcSize=1;arcSize=9;fillColor=none;strokeWidth=1.5;lucidId=6pJg-71lFJcO;container=0;" vertex="1" parent="1">
          <mxGeometry x="565" y="-1015" width="58" height="13" as="geometry" />
        </mxCell>
        <mxCell id="INvLSEzhm12kDnQWH1qi-59" value="(1,n)" style="html=1;overflow=block;blockSpacing=1;whiteSpace=wrap;fontSize=13;fontColor=#1d262b;spacing=0;strokeColor=none;strokeOpacity=100;rounded=1;absoluteArcSize=1;arcSize=9;fillColor=none;strokeWidth=1.5;lucidId=cQJgab2__2.J;" vertex="1" parent="1">
          <mxGeometry x="460.5" y="-1239" width="37" height="18" as="geometry" />
        </mxCell>
        <mxCell id="INvLSEzhm12kDnQWH1qi-60" value="(1,n)" style="html=1;overflow=block;blockSpacing=1;whiteSpace=wrap;fontSize=13;fontColor=#1d262b;spacing=0;strokeColor=none;strokeOpacity=100;rounded=1;absoluteArcSize=1;arcSize=9;fillColor=none;strokeWidth=1.5;lucidId=cQJgab2__2.J;" vertex="1" parent="1">
          <mxGeometry x="460.5" y="-1109" width="37" height="18" as="geometry" />
        </mxCell>
        <mxCell id="INvLSEzhm12kDnQWH1qi-61" value="Exames" style="html=1;overflow=block;blockSpacing=1;whiteSpace=wrap;fontSize=13;spacing=9;strokeColor=#4881b3;strokeOpacity=100;rounded=1;absoluteArcSize=1;arcSize=9;fillColor=#F5FBFF;strokeWidth=NaN;lucidId=YFIgJJDr07dI;" vertex="1" parent="1">
          <mxGeometry x="940" y="-1078" width="120" height="90" as="geometry" />
        </mxCell>
        <mxCell id="INvLSEzhm12kDnQWH1qi-62" value="ProcedimentoTUSS" style="html=1;overflow=block;blockSpacing=1;whiteSpace=wrap;fontSize=13;fontColor=#1d262b;spacing=0;strokeColor=none;strokeOpacity=100;rounded=1;absoluteArcSize=1;arcSize=9;fillColor=none;strokeWidth=1.5;lucidId=hGIgZtu4FHfW;" vertex="1" parent="1">
          <mxGeometry x="969" y="-1222" width="47" height="20" as="geometry" />
        </mxCell>
        <mxCell id="INvLSEzhm12kDnQWH1qi-63" value="" style="html=1;jettySize=18;whiteSpace=wrap;fontSize=13;strokeColor=#224C72;strokeWidth=1.5;rounded=1;arcSize=12;edgeStyle=orthogonalEdgeStyle;startArrow=none;endArrow=oval;endFill=1;endSize=16;exitX=0.015;exitY=-0.005;exitPerimeter=0;lucidId=9GIg_aUPuRqu;" edge="1" parent="1" source="INvLSEzhm12kDnQWH1qi-61">
          <mxGeometry width="100" height="100" relative="1" as="geometry">
            <Array as="points" />
            <mxPoint x="942" y="-1236" as="targetPoint" />
          </mxGeometry>
        </mxCell>
        <mxCell id="INvLSEzhm12kDnQWH1qi-64" value="" style="html=1;jettySize=18;whiteSpace=wrap;fontSize=13;strokeColor=#224C72;strokeWidth=1.5;rounded=1;arcSize=12;edgeStyle=orthogonalEdgeStyle;startArrow=none;endArrow=oval;endFill=0;endSize=16;lucidId=BHIgAL4QQWJ4;exitX=0.142;exitY=-0.014;exitDx=0;exitDy=0;exitPerimeter=0;" edge="1" parent="1" source="INvLSEzhm12kDnQWH1qi-61">
          <mxGeometry width="100" height="100" relative="1" as="geometry">
            <Array as="points" />
            <mxPoint x="957" y="-1086" as="sourcePoint" />
            <mxPoint x="957" y="-1213" as="targetPoint" />
          </mxGeometry>
        </mxCell>
        <mxCell id="INvLSEzhm12kDnQWH1qi-65" value="" style="html=1;jettySize=18;whiteSpace=wrap;fontSize=13;strokeColor=#224C72;strokeWidth=1.5;rounded=1;arcSize=12;edgeStyle=orthogonalEdgeStyle;startArrow=none;endArrow=oval;endFill=0;endSize=16;exitX=0.304;exitY=-0.014;exitPerimeter=0;lucidId=MIIg4pA5IY~K;exitDx=0;exitDy=0;" edge="1" parent="1" source="INvLSEzhm12kDnQWH1qi-61">
          <mxGeometry width="100" height="100" relative="1" as="geometry">
            <Array as="points" />
            <mxPoint x="976" y="-1188" as="targetPoint" />
            <mxPoint x="976.3600000000001" y="-1075.0800000000002" as="sourcePoint" />
          </mxGeometry>
        </mxCell>
        <mxCell id="INvLSEzhm12kDnQWH1qi-66" value="" style="html=1;jettySize=18;whiteSpace=wrap;fontSize=13;strokeColor=#224C72;strokeWidth=1.5;rounded=1;arcSize=12;edgeStyle=orthogonalEdgeStyle;startArrow=none;endArrow=oval;endFill=0;endSize=16;lucidId=SIIgNRyhLvN7;exitX=0.435;exitY=0;exitDx=0;exitDy=0;exitPerimeter=0;" edge="1" parent="1" source="INvLSEzhm12kDnQWH1qi-61">
          <mxGeometry width="100" height="100" relative="1" as="geometry">
            <Array as="points" />
            <mxPoint x="992" y="-1086" as="sourcePoint" />
            <mxPoint x="992" y="-1164" as="targetPoint" />
          </mxGeometry>
        </mxCell>
        <mxCell id="INvLSEzhm12kDnQWH1qi-67" value="" style="html=1;jettySize=18;whiteSpace=wrap;fontSize=13;strokeColor=#224C72;strokeWidth=1.5;rounded=1;arcSize=12;edgeStyle=orthogonalEdgeStyle;startArrow=none;endArrow=oval;endFill=0;endSize=16;lucidId=YIIggoll_Ndh;" edge="1" parent="1">
          <mxGeometry width="100" height="100" relative="1" as="geometry">
            <Array as="points" />
            <mxPoint x="1011" y="-1079" as="sourcePoint" />
            <mxPoint x="1011" y="-1139" as="targetPoint" />
          </mxGeometry>
        </mxCell>
        <mxCell id="INvLSEzhm12kDnQWH1qi-68" value="GrupoExame" style="html=1;overflow=block;blockSpacing=1;whiteSpace=wrap;fontSize=13;fontColor=#1d262b;spacing=0;strokeColor=none;strokeOpacity=100;rounded=1;absoluteArcSize=1;arcSize=9;fillColor=none;strokeWidth=1.5;lucidId=0IIg-uV35-E5;" vertex="1" parent="1">
          <mxGeometry x="987" y="-1196" width="37" height="18" as="geometry" />
        </mxCell>
        <mxCell id="INvLSEzhm12kDnQWH1qi-69" value="Descricao" style="html=1;overflow=block;blockSpacing=1;whiteSpace=wrap;fontSize=13;fontColor=#1d262b;spacing=0;strokeColor=none;strokeOpacity=100;rounded=1;absoluteArcSize=1;arcSize=9;fillColor=none;strokeWidth=1.5;lucidId=kJIgqoQvrq0y;" vertex="1" parent="1">
          <mxGeometry x="1019.5" y="-1147" width="63" height="16" as="geometry" />
        </mxCell>
        <mxCell id="INvLSEzhm12kDnQWH1qi-70" value="" style="html=1;jettySize=18;whiteSpace=wrap;fontSize=13;strokeColor=#224C72;strokeWidth=1.5;rounded=1;arcSize=12;edgeStyle=orthogonalEdgeStyle;startArrow=none;endArrow=oval;endFill=0;endSize=16;lucidId=sLIgwHOLy.2u;" edge="1" parent="1">
          <mxGeometry width="100" height="100" relative="1" as="geometry">
            <Array as="points">
              <mxPoint x="1043" y="-1077" />
            </Array>
            <mxPoint x="1043" y="-1077" as="sourcePoint" />
            <mxPoint x="1043" y="-1099" as="targetPoint" />
          </mxGeometry>
        </mxCell>
        <mxCell id="INvLSEzhm12kDnQWH1qi-71" value="Status" style="html=1;overflow=block;blockSpacing=1;whiteSpace=wrap;fontSize=13;fontColor=#1d262b;spacing=0;strokeColor=none;strokeOpacity=100;rounded=1;absoluteArcSize=1;arcSize=9;fillColor=none;strokeWidth=1.5;lucidId=VMIgeRNOxklo;" vertex="1" parent="1">
          <mxGeometry x="1052" y="-1106.5" width="40" height="17" as="geometry" />
        </mxCell>
        <mxCell id="INvLSEzhm12kDnQWH1qi-73" value="Codigo" style="html=1;overflow=block;blockSpacing=1;whiteSpace=wrap;fontSize=13;fontColor=#1d262b;spacing=0;strokeColor=none;strokeOpacity=100;rounded=1;absoluteArcSize=1;arcSize=9;fillColor=none;strokeWidth=1.5;lucidId=cHIgNz22wgCt;" vertex="1" parent="1">
          <mxGeometry x="950" y="-1246" width="45" height="20" as="geometry" />
        </mxCell>
        <mxCell id="INvLSEzhm12kDnQWH1qi-76" value="ClasseSexo" style="html=1;overflow=block;blockSpacing=1;whiteSpace=wrap;fontSize=13;fontColor=#1d262b;spacing=0;strokeColor=none;strokeOpacity=100;rounded=1;absoluteArcSize=1;arcSize=9;fillColor=none;strokeWidth=1.5;lucidId=kJIgqoQvrq0y;" vertex="1" parent="1">
          <mxGeometry x="1003" y="-1171" width="63" height="16" as="geometry" />
        </mxCell>
        <mxCell id="INvLSEzhm12kDnQWH1qi-80" value="" style="html=1;jettySize=18;whiteSpace=wrap;fontSize=13;strokeColor=#224C72;strokeWidth=1.5;rounded=1;arcSize=12;edgeStyle=orthogonalEdgeStyle;startArrow=none;endArrow=oval;endFill=0;endSize=16;lucidId=sLIgwHOLy.2u;" edge="1" parent="1">
          <mxGeometry width="100" height="100" relative="1" as="geometry">
            <Array as="points">
              <mxPoint x="1027" y="-1077" />
            </Array>
            <mxPoint x="1027" y="-1077" as="sourcePoint" />
            <mxPoint x="1027" y="-1116" as="targetPoint" />
          </mxGeometry>
        </mxCell>
        <mxCell id="INvLSEzhm12kDnQWH1qi-82" value="Classe" style="html=1;overflow=block;blockSpacing=1;whiteSpace=wrap;fontSize=13;fontColor=#1d262b;spacing=0;strokeColor=none;strokeOpacity=100;rounded=1;absoluteArcSize=1;arcSize=9;fillColor=none;strokeWidth=1.5;lucidId=VMIgeRNOxklo;" vertex="1" parent="1">
          <mxGeometry x="1038" y="-1124.5" width="40" height="17" as="geometry" />
        </mxCell>
        <mxCell id="INvLSEzhm12kDnQWH1qi-83" value="Fornecedores" style="html=1;overflow=block;blockSpacing=1;whiteSpace=wrap;fontSize=13;spacing=9;strokeColor=#4881b3;strokeOpacity=100;rounded=1;absoluteArcSize=1;arcSize=9;fillColor=#F5FBFF;strokeWidth=NaN;lucidId=YFIgJJDr07dI;" vertex="1" parent="1">
          <mxGeometry x="60" y="-1022.5" width="120" height="90" as="geometry" />
        </mxCell>
        <mxCell id="INvLSEzhm12kDnQWH1qi-84" value="Nome" style="html=1;overflow=block;blockSpacing=1;whiteSpace=wrap;fontSize=13;fontColor=#1d262b;spacing=0;strokeColor=none;strokeOpacity=100;rounded=1;absoluteArcSize=1;arcSize=9;fillColor=none;strokeWidth=1.5;lucidId=hGIgZtu4FHfW;" vertex="1" parent="1">
          <mxGeometry x="86" y="-1166.5" width="47" height="20" as="geometry" />
        </mxCell>
        <mxCell id="INvLSEzhm12kDnQWH1qi-85" value="" style="html=1;jettySize=18;whiteSpace=wrap;fontSize=13;strokeColor=#224C72;strokeWidth=1.5;rounded=1;arcSize=12;edgeStyle=orthogonalEdgeStyle;startArrow=none;endArrow=oval;endFill=1;endSize=16;exitX=0.015;exitY=-0.005;exitPerimeter=0;lucidId=9GIg_aUPuRqu;" edge="1" parent="1" source="INvLSEzhm12kDnQWH1qi-83">
          <mxGeometry width="100" height="100" relative="1" as="geometry">
            <Array as="points" />
            <mxPoint x="62" y="-1180.5" as="targetPoint" />
          </mxGeometry>
        </mxCell>
        <mxCell id="INvLSEzhm12kDnQWH1qi-86" value="" style="html=1;jettySize=18;whiteSpace=wrap;fontSize=13;strokeColor=#224C72;strokeWidth=1.5;rounded=1;arcSize=12;edgeStyle=orthogonalEdgeStyle;startArrow=none;endArrow=oval;endFill=0;endSize=16;lucidId=BHIgAL4QQWJ4;exitX=0.142;exitY=-0.014;exitDx=0;exitDy=0;exitPerimeter=0;" edge="1" parent="1" source="INvLSEzhm12kDnQWH1qi-83">
          <mxGeometry width="100" height="100" relative="1" as="geometry">
            <Array as="points" />
            <mxPoint x="77" y="-1030.5" as="sourcePoint" />
            <mxPoint x="77" y="-1157.5" as="targetPoint" />
          </mxGeometry>
        </mxCell>
        <mxCell id="INvLSEzhm12kDnQWH1qi-87" value="" style="html=1;jettySize=18;whiteSpace=wrap;fontSize=13;strokeColor=#224C72;strokeWidth=1.5;rounded=1;arcSize=12;edgeStyle=orthogonalEdgeStyle;startArrow=none;endArrow=oval;endFill=0;endSize=16;exitX=0.304;exitY=-0.014;exitPerimeter=0;lucidId=MIIg4pA5IY~K;exitDx=0;exitDy=0;" edge="1" parent="1" source="INvLSEzhm12kDnQWH1qi-83">
          <mxGeometry width="100" height="100" relative="1" as="geometry">
            <Array as="points" />
            <mxPoint x="96" y="-1132.5" as="targetPoint" />
            <mxPoint x="96.36000000000013" y="-1019.5800000000002" as="sourcePoint" />
          </mxGeometry>
        </mxCell>
        <mxCell id="INvLSEzhm12kDnQWH1qi-88" value="" style="html=1;jettySize=18;whiteSpace=wrap;fontSize=13;strokeColor=#224C72;strokeWidth=1.5;rounded=1;arcSize=12;edgeStyle=orthogonalEdgeStyle;startArrow=none;endArrow=oval;endFill=0;endSize=16;lucidId=SIIgNRyhLvN7;exitX=0.435;exitY=0;exitDx=0;exitDy=0;exitPerimeter=0;" edge="1" parent="1" source="INvLSEzhm12kDnQWH1qi-83">
          <mxGeometry width="100" height="100" relative="1" as="geometry">
            <Array as="points" />
            <mxPoint x="112" y="-1030.5" as="sourcePoint" />
            <mxPoint x="112" y="-1108.5" as="targetPoint" />
          </mxGeometry>
        </mxCell>
        <mxCell id="INvLSEzhm12kDnQWH1qi-89" value="" style="html=1;jettySize=18;whiteSpace=wrap;fontSize=13;strokeColor=#224C72;strokeWidth=1.5;rounded=1;arcSize=12;edgeStyle=orthogonalEdgeStyle;startArrow=none;endArrow=oval;endFill=0;endSize=16;lucidId=YIIggoll_Ndh;" edge="1" parent="1">
          <mxGeometry width="100" height="100" relative="1" as="geometry">
            <Array as="points" />
            <mxPoint x="131" y="-1023.5" as="sourcePoint" />
            <mxPoint x="131" y="-1083.5" as="targetPoint" />
          </mxGeometry>
        </mxCell>
        <mxCell id="INvLSEzhm12kDnQWH1qi-90" value="Tipo" style="html=1;overflow=block;blockSpacing=1;whiteSpace=wrap;fontSize=13;fontColor=#1d262b;spacing=0;strokeColor=none;strokeOpacity=100;rounded=1;absoluteArcSize=1;arcSize=9;fillColor=none;strokeWidth=1.5;lucidId=0IIg-uV35-E5;" vertex="1" parent="1">
          <mxGeometry x="102" y="-1140.5" width="37" height="18" as="geometry" />
        </mxCell>
        <mxCell id="INvLSEzhm12kDnQWH1qi-91" value="ClassForncedor" style="html=1;overflow=block;blockSpacing=1;whiteSpace=wrap;fontSize=13;fontColor=#1d262b;spacing=0;strokeColor=none;strokeOpacity=100;rounded=1;absoluteArcSize=1;arcSize=9;fillColor=none;strokeWidth=1.5;lucidId=kJIgqoQvrq0y;" vertex="1" parent="1">
          <mxGeometry x="139.5" y="-1091.5" width="63" height="16" as="geometry" />
        </mxCell>
        <mxCell id="INvLSEzhm12kDnQWH1qi-92" value="" style="html=1;jettySize=18;whiteSpace=wrap;fontSize=13;strokeColor=#224C72;strokeWidth=1.5;rounded=1;arcSize=12;edgeStyle=orthogonalEdgeStyle;startArrow=none;endArrow=oval;endFill=0;endSize=16;lucidId=sLIgwHOLy.2u;" edge="1" parent="1">
          <mxGeometry width="100" height="100" relative="1" as="geometry">
            <Array as="points">
              <mxPoint x="163" y="-1021.5" />
            </Array>
            <mxPoint x="163" y="-1021.5" as="sourcePoint" />
            <mxPoint x="163" y="-1043.5" as="targetPoint" />
          </mxGeometry>
        </mxCell>
        <mxCell id="INvLSEzhm12kDnQWH1qi-93" value="Status" style="html=1;overflow=block;blockSpacing=1;whiteSpace=wrap;fontSize=13;fontColor=#1d262b;spacing=0;strokeColor=none;strokeOpacity=100;rounded=1;absoluteArcSize=1;arcSize=9;fillColor=none;strokeWidth=1.5;lucidId=VMIgeRNOxklo;" vertex="1" parent="1">
          <mxGeometry x="172" y="-1051" width="40" height="17" as="geometry" />
        </mxCell>
        <mxCell id="INvLSEzhm12kDnQWH1qi-94" value="Codigo" style="html=1;overflow=block;blockSpacing=1;whiteSpace=wrap;fontSize=13;fontColor=#1d262b;spacing=0;strokeColor=none;strokeOpacity=100;rounded=1;absoluteArcSize=1;arcSize=9;fillColor=none;strokeWidth=1.5;lucidId=cHIgNz22wgCt;" vertex="1" parent="1">
          <mxGeometry x="70" y="-1190.5" width="45" height="20" as="geometry" />
        </mxCell>
        <mxCell id="INvLSEzhm12kDnQWH1qi-95" value="NumInscricao" style="html=1;overflow=block;blockSpacing=1;whiteSpace=wrap;fontSize=13;fontColor=#1d262b;spacing=0;strokeColor=none;strokeOpacity=100;rounded=1;absoluteArcSize=1;arcSize=9;fillColor=none;strokeWidth=1.5;lucidId=kJIgqoQvrq0y;" vertex="1" parent="1">
          <mxGeometry x="123" y="-1115.5" width="63" height="16" as="geometry" />
        </mxCell>
        <mxCell id="INvLSEzhm12kDnQWH1qi-96" value="" style="html=1;jettySize=18;whiteSpace=wrap;fontSize=13;strokeColor=#224C72;strokeWidth=1.5;rounded=1;arcSize=12;edgeStyle=orthogonalEdgeStyle;startArrow=none;endArrow=oval;endFill=0;endSize=16;lucidId=sLIgwHOLy.2u;" edge="1" parent="1">
          <mxGeometry width="100" height="100" relative="1" as="geometry">
            <Array as="points">
              <mxPoint x="147" y="-1021.5" />
            </Array>
            <mxPoint x="147" y="-1021.5" as="sourcePoint" />
            <mxPoint x="147" y="-1060.5" as="targetPoint" />
          </mxGeometry>
        </mxCell>
        <mxCell id="INvLSEzhm12kDnQWH1qi-97" value="Grupo" style="html=1;overflow=block;blockSpacing=1;whiteSpace=wrap;fontSize=13;fontColor=#1d262b;spacing=0;strokeColor=none;strokeOpacity=100;rounded=1;absoluteArcSize=1;arcSize=9;fillColor=none;strokeWidth=1.5;lucidId=VMIgeRNOxklo;" vertex="1" parent="1">
          <mxGeometry x="158" y="-1069" width="40" height="17" as="geometry" />
        </mxCell>
        <mxCell id="INvLSEzhm12kDnQWH1qi-100" value="" style="html=1;jettySize=18;whiteSpace=wrap;fontSize=13;strokeColor=#224C72;strokeWidth=1.5;rounded=1;arcSize=12;edgeStyle=orthogonalEdgeStyle;startArrow=none;endArrow=oval;endFill=1;endSize=16;exitX=0.016;exitY=-0.006;exitPerimeter=0;lucidId=GGJgjXmGAtEy;" edge="1" parent="1">
          <mxGeometry width="100" height="100" relative="1" as="geometry">
            <Array as="points" />
            <mxPoint x="643.5" y="-1199" as="targetPoint" />
            <mxPoint x="643.4200000000001" y="-1077.54" as="sourcePoint" />
          </mxGeometry>
        </mxCell>
        <mxCell id="INvLSEzhm12kDnQWH1qi-101" value="GrupoExames" style="html=1;overflow=block;blockSpacing=1;whiteSpace=wrap;fontSize=13;spacing=9;strokeColor=#4881b3;strokeOpacity=100;rounded=1;absoluteArcSize=1;arcSize=9;fillColor=#F5FBFF;strokeWidth=NaN;lucidId=hGJg~UO_usF6;" vertex="1" parent="1">
          <mxGeometry x="640.5" y="-1078" width="120" height="90" as="geometry" />
        </mxCell>
        <mxCell id="INvLSEzhm12kDnQWH1qi-102" value="Codigo" style="html=1;overflow=block;blockSpacing=1;whiteSpace=wrap;fontSize=13;fontColor=#1d262b;spacing=0;strokeColor=none;strokeOpacity=100;rounded=1;absoluteArcSize=1;arcSize=9;fillColor=none;strokeWidth=1.5;lucidId=KGJghGDAWpXa;" vertex="1" parent="1">
          <mxGeometry x="653.5" y="-1207" width="45" height="12" as="geometry" />
        </mxCell>
        <mxCell id="INvLSEzhm12kDnQWH1qi-103" value="" style="html=1;jettySize=18;whiteSpace=wrap;fontSize=13;strokeColor=#224C72;strokeWidth=1.5;rounded=1;arcSize=12;edgeStyle=orthogonalEdgeStyle;startArrow=none;endArrow=oval;endFill=0;endSize=16;exitX=0.156;exitY=-0.012;exitPerimeter=0;lucidId=-GJgxsTZHF9b;" edge="1" parent="1" source="INvLSEzhm12kDnQWH1qi-101">
          <mxGeometry width="100" height="100" relative="1" as="geometry">
            <Array as="points" />
            <mxPoint x="659.5" y="-1173" as="targetPoint" />
          </mxGeometry>
        </mxCell>
        <mxCell id="INvLSEzhm12kDnQWH1qi-104" value="Descricao" style="html=1;overflow=block;blockSpacing=1;whiteSpace=wrap;fontSize=13;fontColor=#1d262b;spacing=0;strokeColor=none;strokeOpacity=100;rounded=1;absoluteArcSize=1;arcSize=9;fillColor=none;strokeWidth=1.5;lucidId=_GJgO~j-ajev;" vertex="1" parent="1">
          <mxGeometry x="669.5" y="-1180" width="58" height="12" as="geometry" />
        </mxCell>
        <mxCell id="INvLSEzhm12kDnQWH1qi-105" value="" style="html=1;jettySize=18;whiteSpace=wrap;fontSize=13;strokeColor=#224C72;strokeWidth=1.5;rounded=1;arcSize=12;edgeStyle=orthogonalEdgeStyle;startArrow=none;endArrow=oval;endFill=0;endSize=16;exitX=0.305;exitY=-0.012;exitPerimeter=0;lucidId=FHJgP1LxmJK6;" edge="1" parent="1" source="INvLSEzhm12kDnQWH1qi-101">
          <mxGeometry width="100" height="100" relative="1" as="geometry">
            <Array as="points" />
            <mxPoint x="677.5" y="-1146" as="targetPoint" />
          </mxGeometry>
        </mxCell>
        <mxCell id="INvLSEzhm12kDnQWH1qi-106" value="DescricaoReduzida" style="html=1;overflow=block;blockSpacing=1;whiteSpace=wrap;fontSize=13;fontColor=#1d262b;spacing=0;strokeColor=none;strokeOpacity=100;rounded=1;absoluteArcSize=1;arcSize=17;fillColor=none;strokeWidth=1.5;lucidId=HHJgamnCqKF~;" vertex="1" parent="1">
          <mxGeometry x="687.5" y="-1154" width="56" height="16" as="geometry" />
        </mxCell>
        <mxCell id="INvLSEzhm12kDnQWH1qi-107" value="" style="html=1;jettySize=18;whiteSpace=wrap;fontSize=13;strokeColor=#224C72;strokeWidth=1.5;rounded=1;arcSize=12;edgeStyle=orthogonalEdgeStyle;startArrow=none;endArrow=oval;endFill=0;endSize=16;exitX=0.5;exitY=-0.012;exitPerimeter=0;lucidId=oJJgOILWXj3x;" edge="1" parent="1">
          <mxGeometry width="100" height="100" relative="1" as="geometry">
            <Array as="points" />
            <mxPoint x="692.5" y="-1079.08" as="sourcePoint" />
            <mxPoint x="692.5" y="-1119" as="targetPoint" />
          </mxGeometry>
        </mxCell>
        <mxCell id="INvLSEzhm12kDnQWH1qi-108" value="Status" style="html=1;overflow=block;blockSpacing=1;whiteSpace=wrap;fontSize=13;fontColor=#1d262b;spacing=0;strokeColor=none;strokeOpacity=100;rounded=1;absoluteArcSize=1;arcSize=9;fillColor=none;strokeWidth=1.5;lucidId=pJJgagtvBwJT;" vertex="1" parent="1">
          <mxGeometry x="700.5" y="-1126" width="44" height="13" as="geometry" />
        </mxCell>
        <mxCell id="INvLSEzhm12kDnQWH1qi-109" value="Pertence" style="html=1;overflow=block;blockSpacing=1;whiteSpace=wrap;rhombus;fontSize=13;spacing=3.8;strokeColor=#4881b3;strokeOpacity=100;rounded=1;absoluteArcSize=1;arcSize=9;fillColor=#F5FBFF;strokeWidth=1.5;lucidId=lMJgxPiUDe9D;" vertex="1" parent="1">
          <mxGeometry x="810" y="-1071" width="87" height="72" as="geometry" />
        </mxCell>
        <mxCell id="INvLSEzhm12kDnQWH1qi-114" style="edgeStyle=orthogonalEdgeStyle;rounded=0;orthogonalLoop=1;jettySize=auto;html=1;exitX=0;exitY=0.5;exitDx=0;exitDy=0;endArrow=none;endFill=0;" edge="1" parent="1" source="INvLSEzhm12kDnQWH1qi-109">
          <mxGeometry relative="1" as="geometry">
            <mxPoint x="760" y="-1035" as="targetPoint" />
          </mxGeometry>
        </mxCell>
        <mxCell id="INvLSEzhm12kDnQWH1qi-115" style="edgeStyle=orthogonalEdgeStyle;rounded=0;orthogonalLoop=1;jettySize=auto;html=1;exitX=1;exitY=0.5;exitDx=0;exitDy=0;endArrow=none;endFill=0;" edge="1" parent="1" source="INvLSEzhm12kDnQWH1qi-109">
          <mxGeometry relative="1" as="geometry">
            <mxPoint x="938" y="-1035" as="targetPoint" />
          </mxGeometry>
        </mxCell>
        <mxCell id="INvLSEzhm12kDnQWH1qi-116" value="(1,1)" style="html=1;overflow=block;blockSpacing=1;whiteSpace=wrap;fontSize=13;fontColor=#1d262b;spacing=0;strokeColor=none;strokeOpacity=100;rounded=1;absoluteArcSize=1;arcSize=9;fillColor=none;strokeWidth=1.5;lucidId=cQJgab2__2.J;" vertex="1" parent="1">
          <mxGeometry x="763" y="-1054" width="37" height="18" as="geometry" />
        </mxCell>
        <mxCell id="INvLSEzhm12kDnQWH1qi-117" value="(1,n)" style="html=1;overflow=block;blockSpacing=1;whiteSpace=wrap;fontSize=13;fontColor=#1d262b;spacing=0;strokeColor=none;strokeOpacity=100;rounded=1;absoluteArcSize=1;arcSize=9;fillColor=none;strokeWidth=1.5;lucidId=cQJgab2__2.J;" vertex="1" parent="1">
          <mxGeometry x="897" y="-1054" width="37" height="18" as="geometry" />
        </mxCell>
        <mxCell id="INvLSEzhm12kDnQWH1qi-131" value="Equipamentos" style="html=1;overflow=block;blockSpacing=1;whiteSpace=wrap;fontSize=13;spacing=9;strokeColor=#4881b3;strokeOpacity=100;rounded=1;absoluteArcSize=1;arcSize=9;fillColor=#F5FBFF;strokeWidth=NaN;lucidId=YFIgJJDr07dI;" vertex="1" parent="1">
          <mxGeometry x="935.5" y="-1353" width="120" height="90" as="geometry" />
        </mxCell>
        <mxCell id="INvLSEzhm12kDnQWH1qi-132" value="Modelo" style="html=1;overflow=block;blockSpacing=1;whiteSpace=wrap;fontSize=13;fontColor=#1d262b;spacing=0;strokeColor=none;strokeOpacity=100;rounded=1;absoluteArcSize=1;arcSize=9;fillColor=none;strokeWidth=1.5;lucidId=hGIgZtu4FHfW;" vertex="1" parent="1">
          <mxGeometry x="961.5" y="-1497" width="48.5" height="20" as="geometry" />
        </mxCell>
        <mxCell id="INvLSEzhm12kDnQWH1qi-133" value="" style="html=1;jettySize=18;whiteSpace=wrap;fontSize=13;strokeColor=#224C72;strokeWidth=1.5;rounded=1;arcSize=12;edgeStyle=orthogonalEdgeStyle;startArrow=none;endArrow=oval;endFill=1;endSize=16;exitX=0.015;exitY=-0.005;exitPerimeter=0;lucidId=9GIg_aUPuRqu;" edge="1" parent="1" source="INvLSEzhm12kDnQWH1qi-131">
          <mxGeometry width="100" height="100" relative="1" as="geometry">
            <Array as="points" />
            <mxPoint x="937.5" y="-1511" as="targetPoint" />
          </mxGeometry>
        </mxCell>
        <mxCell id="INvLSEzhm12kDnQWH1qi-134" value="" style="html=1;jettySize=18;whiteSpace=wrap;fontSize=13;strokeColor=#224C72;strokeWidth=1.5;rounded=1;arcSize=12;edgeStyle=orthogonalEdgeStyle;startArrow=none;endArrow=oval;endFill=0;endSize=16;lucidId=BHIgAL4QQWJ4;exitX=0.142;exitY=-0.014;exitDx=0;exitDy=0;exitPerimeter=0;" edge="1" parent="1" source="INvLSEzhm12kDnQWH1qi-131">
          <mxGeometry width="100" height="100" relative="1" as="geometry">
            <Array as="points" />
            <mxPoint x="952.5" y="-1361" as="sourcePoint" />
            <mxPoint x="952.5" y="-1488" as="targetPoint" />
          </mxGeometry>
        </mxCell>
        <mxCell id="INvLSEzhm12kDnQWH1qi-135" value="" style="html=1;jettySize=18;whiteSpace=wrap;fontSize=13;strokeColor=#224C72;strokeWidth=1.5;rounded=1;arcSize=12;edgeStyle=orthogonalEdgeStyle;startArrow=none;endArrow=oval;endFill=0;endSize=16;exitX=0.304;exitY=-0.014;exitPerimeter=0;lucidId=MIIg4pA5IY~K;exitDx=0;exitDy=0;" edge="1" parent="1" source="INvLSEzhm12kDnQWH1qi-131">
          <mxGeometry width="100" height="100" relative="1" as="geometry">
            <Array as="points" />
            <mxPoint x="971.5" y="-1463" as="targetPoint" />
            <mxPoint x="971.86" y="-1350.0800000000002" as="sourcePoint" />
          </mxGeometry>
        </mxCell>
        <mxCell id="INvLSEzhm12kDnQWH1qi-136" value="" style="html=1;jettySize=18;whiteSpace=wrap;fontSize=13;strokeColor=#224C72;strokeWidth=1.5;rounded=1;arcSize=12;edgeStyle=orthogonalEdgeStyle;startArrow=none;endArrow=oval;endFill=0;endSize=16;lucidId=SIIgNRyhLvN7;exitX=0.435;exitY=0;exitDx=0;exitDy=0;exitPerimeter=0;" edge="1" parent="1" source="INvLSEzhm12kDnQWH1qi-131">
          <mxGeometry width="100" height="100" relative="1" as="geometry">
            <Array as="points" />
            <mxPoint x="987.5" y="-1361" as="sourcePoint" />
            <mxPoint x="987.5" y="-1439" as="targetPoint" />
          </mxGeometry>
        </mxCell>
        <mxCell id="INvLSEzhm12kDnQWH1qi-137" value="" style="html=1;jettySize=18;whiteSpace=wrap;fontSize=13;strokeColor=#224C72;strokeWidth=1.5;rounded=1;arcSize=12;edgeStyle=orthogonalEdgeStyle;startArrow=none;endArrow=oval;endFill=0;endSize=16;lucidId=YIIggoll_Ndh;" edge="1" parent="1">
          <mxGeometry width="100" height="100" relative="1" as="geometry">
            <Array as="points" />
            <mxPoint x="1006.5" y="-1354" as="sourcePoint" />
            <mxPoint x="1006.5" y="-1414" as="targetPoint" />
          </mxGeometry>
        </mxCell>
        <mxCell id="INvLSEzhm12kDnQWH1qi-138" value="Fabricante" style="html=1;overflow=block;blockSpacing=1;whiteSpace=wrap;fontSize=13;fontColor=#1d262b;spacing=0;strokeColor=none;strokeOpacity=100;rounded=1;absoluteArcSize=1;arcSize=9;fillColor=none;strokeWidth=1.5;lucidId=0IIg-uV35-E5;" vertex="1" parent="1">
          <mxGeometry x="981.5" y="-1471" width="68.5" height="18" as="geometry" />
        </mxCell>
        <mxCell id="INvLSEzhm12kDnQWH1qi-139" value="CabineAcustica" style="html=1;overflow=block;blockSpacing=1;whiteSpace=wrap;fontSize=13;fontColor=#1d262b;spacing=0;strokeColor=none;strokeOpacity=100;rounded=1;absoluteArcSize=1;arcSize=9;fillColor=none;strokeWidth=1.5;lucidId=kJIgqoQvrq0y;" vertex="1" parent="1">
          <mxGeometry x="1017" y="-1421" width="63" height="16" as="geometry" />
        </mxCell>
        <mxCell id="INvLSEzhm12kDnQWH1qi-140" value="" style="html=1;jettySize=18;whiteSpace=wrap;fontSize=13;strokeColor=#224C72;strokeWidth=1.5;rounded=1;arcSize=12;edgeStyle=orthogonalEdgeStyle;startArrow=none;endArrow=oval;endFill=0;endSize=16;exitX=0.797;exitY=-0.012;exitPerimeter=0;lucidId=sLIgwHOLy.2u;" edge="1" parent="1">
          <mxGeometry width="100" height="100" relative="1" as="geometry">
            <Array as="points" />
            <mxPoint x="1023.14" y="-1354.0800000000002" as="sourcePoint" />
            <mxPoint x="1024.5" y="-1384" as="targetPoint" />
          </mxGeometry>
        </mxCell>
        <mxCell id="INvLSEzhm12kDnQWH1qi-141" value="Status" style="html=1;overflow=block;blockSpacing=1;whiteSpace=wrap;fontSize=13;fontColor=#1d262b;spacing=0;strokeColor=none;strokeOpacity=100;rounded=1;absoluteArcSize=1;arcSize=9;fillColor=none;strokeWidth=1.5;lucidId=VMIgeRNOxklo;" vertex="1" parent="1">
          <mxGeometry x="1033.5" y="-1392" width="40" height="17" as="geometry" />
        </mxCell>
        <mxCell id="INvLSEzhm12kDnQWH1qi-142" value="Codigo" style="html=1;overflow=block;blockSpacing=1;whiteSpace=wrap;fontSize=13;fontColor=#1d262b;spacing=0;strokeColor=none;strokeOpacity=100;rounded=1;absoluteArcSize=1;arcSize=9;fillColor=none;strokeWidth=1.5;lucidId=cHIgNz22wgCt;" vertex="1" parent="1">
          <mxGeometry x="945.5" y="-1521" width="45" height="20" as="geometry" />
        </mxCell>
        <mxCell id="INvLSEzhm12kDnQWH1qi-143" value="NumSerie" style="html=1;overflow=block;blockSpacing=1;whiteSpace=wrap;fontSize=13;fontColor=#1d262b;spacing=0;strokeColor=none;strokeOpacity=100;rounded=1;absoluteArcSize=1;arcSize=9;fillColor=none;strokeWidth=1.5;lucidId=kJIgqoQvrq0y;" vertex="1" parent="1">
          <mxGeometry x="998" y="-1447" width="63" height="16" as="geometry" />
        </mxCell>
      </root>
    </mxGraphModel>
  </diagram>
</mxfile>
